<svg width="36" height="36" viewBox="0 0 36 36" fill="none" xmlns="http://www.w3.org/2000/svg">
<path d="M18 36C27.9411 36 36 27.9411 36 18C36 8.05887 27.9411 0 18 0C8.05887 0 0 8.05887 0 18C0 27.9411 8.05887 36 18 36Z" fill="#5FCCC8"/>
<path d="M22.7925 9H13.2075C12.105 9 11.205 9.9 11.205 11.0025V25.02C11.205 26.1225 12.105 27.0225 13.2075 27.0225H22.7925C23.895 27.0225 24.795 26.1225 24.795 25.02V11.0025C24.795 9.9 23.895 9 22.7925 9ZM17.9325 13.455C19.17 13.455 20.16 14.445 20.16 15.6825C20.16 16.92 19.17 17.91 17.9325 17.91C16.695 17.91 15.705 16.92 15.705 15.6825C15.6825 14.4675 16.695 13.455 17.9325 13.455ZM21.285 22.545H14.715V19.71C14.715 18.765 15.4575 18 16.4025 18H16.4925C16.785 18.27 17.145 18.45 17.5275 18.5175H17.5725C17.595 18.5175 17.595 18.5175 17.6175 18.5175C17.865 18.5625 18.1125 18.5625 18.36 18.5175C18.7875 18.45 19.17 18.27 19.5075 18H19.5975C20.5425 18 21.285 18.765 21.285 19.6875V22.545Z" fill="white"/>
</svg>
