<svg width="36" height="36" viewBox="0 0 36 36" fill="none" xmlns="http://www.w3.org/2000/svg">
<path d="M18 36C27.9411 36 36 27.9411 36 18C36 8.05887 27.9411 0 18 0C8.05887 0 0 8.05887 0 18C0 27.9411 8.05887 36 18 36Z" fill="#F6CEB4"/>
<path d="M18 36C27.9411 36 36 27.9411 36 18C36 8.05887 27.9411 0 18 0C8.05887 0 0 8.05887 0 18C0 27.9411 8.05887 36 18 36Z" fill="#F6CEB4"/>
<path d="M26.9998 15.975C26.3248 15.975 25.8748 16.425 25.6498 16.875H23.8498C23.6248 16.875 23.1748 16.65 23.1748 16.425C22.9498 15.975 22.9498 15.3 23.3998 15.075L23.8498 14.85C24.0748 15.075 24.5248 15.075 24.9748 14.85C25.4248 14.625 25.6498 13.95 25.4248 13.5C25.1998 13.05 24.5248 12.825 24.0748 13.05C23.6248 13.275 23.6248 13.725 23.6248 13.95L23.1748 14.175C22.7248 14.4 22.0498 14.175 21.8248 13.725C21.3748 13.5 21.3748 13.275 21.3748 12.825L22.0498 11.475C22.7248 11.475 23.1748 11.25 23.6248 10.575C24.0748 9.675 23.8498 8.775 22.9498 8.325C22.0498 8.1 21.3748 8.325 20.9248 9C20.4748 9.675 20.4748 10.35 20.9248 10.8L20.0248 12.15C19.7998 12.375 19.5748 12.6 19.1248 12.6C18.6748 12.6 18.2248 11.7 18.2248 11.25V11.025C18.2248 10.8 18.2248 10.575 18.4498 10.575C18.6748 10.35 18.8998 10.125 18.8998 9.675C18.8998 9 18.4498 8.55 17.7748 8.55C17.0998 8.55 16.6498 9 16.6498 9.675C16.6498 9.9 16.8748 10.35 17.0998 10.575C17.3248 10.575 17.3248 10.8 17.3248 11.025V11.925C17.3248 12.375 17.0998 12.6 16.6498 12.6H16.4248C16.1998 12.6 15.7498 12.375 15.5248 12.15L14.6248 10.8C14.8498 10.35 15.0748 9.675 14.6248 9C14.1748 8.325 13.2748 7.875 12.3748 8.325C11.6998 9 11.4748 9.9 11.9248 10.8C12.1498 11.25 12.8248 11.475 13.2748 11.475L13.9498 12.825C14.1748 13.05 14.1748 13.5 13.9498 13.725C13.7248 14.175 13.2748 14.4 12.8248 14.175L12.3748 13.95C12.1498 13.95 11.9248 13.725 11.9248 13.5C11.9248 13.275 11.6998 13.05 11.4748 12.825C11.0248 12.6 10.3498 12.825 10.1248 13.275C9.89981 13.725 10.1248 14.4 10.5748 14.625C10.5748 14.85 11.0248 14.85 11.2498 14.85C11.4748 14.85 11.6998 14.85 11.9248 14.85L12.1498 15.075C12.5998 15.3 12.5998 15.975 12.3748 16.425C12.3748 16.65 12.1498 16.875 11.6998 16.875L10.3498 17.1C10.1248 16.425 9.67481 16.2 8.99981 16.2C8.0998 16.2 7.4248 16.875 7.4248 17.775C7.4248 18.675 8.0998 19.35 8.99981 19.35C9.67481 19.35 10.1248 18.9 10.3498 18.45H11.6998C11.9248 18.45 12.3748 18.675 12.3748 18.9C12.8248 19.35 12.5998 20.025 12.1498 20.25L11.6998 20.475C11.4748 20.25 11.0248 20.25 10.5748 20.475C10.1248 20.925 9.89981 21.375 10.3498 22.05C10.5748 22.5 11.2498 22.725 11.6998 22.275C12.1498 22.05 12.1498 21.6 12.1498 21.375L12.3748 21.15C13.0498 20.925 13.7248 21.15 13.9498 21.6C13.9498 21.825 13.9498 22.05 13.9498 22.05L12.8248 24.3C12.1498 24.3 11.4748 24.525 11.2498 25.2C11.0248 25.875 11.2498 26.775 11.6998 27.225C12.3748 27.9 13.4998 27.45 13.9498 26.775C14.1748 26.325 14.1748 25.65 13.9498 24.975L15.0748 23.175C15.2998 22.725 15.7498 22.725 16.1998 22.725C16.6498 22.725 17.0998 22.95 17.0998 23.4V24.075C16.6498 24.3 16.4248 24.525 16.4248 24.975C16.4248 25.65 16.8748 26.1 17.5498 26.1C18.2248 26.1 18.6748 25.65 18.6748 24.975C18.6748 24.525 18.4498 24.3 17.9998 24.075V23.175C17.9998 22.725 18.2248 22.5 18.6748 22.5C19.1248 22.5 19.5748 22.725 20.0248 23.175L20.6998 24.3C20.4748 24.75 20.2498 25.425 20.6998 26.1C21.1498 26.775 22.0498 27.225 22.9498 26.775C23.6248 26.325 24.0748 25.425 23.6248 24.525C23.3998 24.075 22.7248 23.625 22.0498 23.625L21.3748 22.5C21.1498 22.275 21.1498 21.825 21.3748 21.6C21.5998 21.15 22.0498 20.925 22.4998 21.15L23.6248 21.6C23.6248 22.05 23.8498 22.275 24.0748 22.5C24.5248 22.725 25.1998 22.725 25.4248 22.05C25.6498 21.6 25.6498 20.925 24.9748 20.7C24.5248 20.475 24.0748 20.475 23.8498 20.7L23.1748 20.25C22.7248 20.025 22.7248 19.35 22.9498 18.9C23.1748 18.675 23.3998 18.45 23.6248 18.45L25.4248 18.225C25.6498 18.675 26.3248 19.125 26.7748 19.125C27.6748 19.125 28.3498 18.45 28.3498 17.55C28.5748 16.65 27.8998 15.975 26.9998 15.975ZM13.7248 18.225C13.4998 18.225 13.2748 18.225 13.2748 18C13.2748 17.775 13.4998 17.55 13.7248 17.55C13.9498 17.55 14.1748 17.775 14.1748 18C14.1748 18.225 13.9498 18.225 13.7248 18.225ZM15.7498 20.925C15.7498 21.15 15.7498 21.15 15.5248 21.15C15.5248 21.15 15.5248 21.15 15.2998 21.15C15.0748 21.15 14.8498 20.925 14.8498 20.7C14.8498 20.475 14.8498 20.475 14.8498 20.25C14.8498 20.025 15.0748 20.025 15.0748 20.025C15.0748 20.025 15.0748 20.025 15.2998 20.025C15.5248 20.025 15.7498 20.25 15.7498 20.475C15.9748 20.7 15.9748 20.7 15.7498 20.925ZM15.7498 15.975C15.7498 15.975 15.5248 15.975 15.2998 15.975C15.0748 15.975 14.8498 15.975 14.6248 15.75C14.6248 15.525 14.6248 15.3 14.6248 15.075C14.6248 14.85 14.8498 14.625 15.0748 14.625C15.2998 14.625 15.2998 14.4 15.5248 14.4C15.7498 14.4 15.9748 14.625 16.1998 14.85C16.4248 15.3 16.1998 15.75 15.7498 15.975ZM17.7748 18.675C17.3248 18.675 16.8748 18.225 16.8748 17.775C16.8748 17.325 17.3248 16.875 17.7748 16.875C18.2248 16.875 18.6748 17.325 18.6748 17.775C18.8998 18.225 18.4498 18.675 17.7748 18.675ZM18.6748 14.625C18.4498 14.625 18.2248 14.4 18.2248 14.175C18.2248 13.95 18.2248 13.725 18.2248 13.725C18.4498 13.5 18.6748 13.5 18.8998 13.5C19.1248 13.5 19.1248 13.5 19.3498 13.5C19.5748 13.5 19.7998 13.725 19.7998 13.95C19.7998 14.175 19.7998 14.4 19.7998 14.4C19.7998 14.625 19.5748 14.85 19.1248 14.85C18.8998 14.85 18.8998 14.85 18.6748 14.625ZM19.5748 22.05C19.1248 22.05 18.8998 21.825 18.8998 21.6C18.8998 21.375 19.1248 21.15 19.5748 21.15C20.0248 20.925 20.2498 21.15 20.2498 21.375C20.2498 21.6 20.0248 22.05 19.5748 22.05ZM21.3748 18.9C20.9248 18.9 20.4748 18.675 20.4748 18.225C20.4748 17.775 20.9248 17.55 21.3748 17.55C21.8248 17.55 22.2748 17.775 22.2748 18.225C22.0498 18.675 21.8248 18.9 21.3748 18.9Z" fill="white"/>
</svg>
