<svg width="10" height="10" viewBox="0 0 10 10" fill="none" xmlns="http://www.w3.org/2000/svg">
<path d="M1 4.35C0.641015 4.35 0.35 4.64101 0.35 5C0.35 5.35899 0.641015 5.65 1 5.65L1 4.35ZM9.45962 5.45962C9.71346 5.20578 9.71346 4.79422 9.45962 4.54038L5.32305 0.403807C5.0692 0.149966 4.65765 0.149966 4.40381 0.403807C4.14997 0.657647 4.14997 1.0692 4.40381 1.32305L8.08076 5L4.40381 8.67696C4.14996 8.9308 4.14996 9.34235 4.40381 9.59619C4.65765 9.85004 5.0692 9.85004 5.32304 9.59619L9.45962 5.45962ZM1 5.65L9 5.65L9 4.35L1 4.35L1 5.65Z" fill="#5FCCC8"/>
</svg>
