<svg width="36" height="36" viewBox="0 0 36 36" fill="none" xmlns="http://www.w3.org/2000/svg">
<path d="M18 36C27.9411 36 36 27.9411 36 18C36 8.05887 27.9411 0 18 0C8.05887 0 0 8.05887 0 18C0 27.9411 8.05887 36 18 36Z" fill="#5FCCC8"/>
<path d="M20.8799 13.365C19.7774 11.7 18.7199 10.125 18.3599 8.93251C18.2924 8.73001 18.1124 8.59501 17.9099 8.57251C17.7074 8.57251 17.5049 8.68501 17.4374 8.88751C17.0549 9.94501 16.1549 11.3625 15.1874 12.87C13.4774 15.5475 11.5649 18.585 11.5649 20.9925C11.5649 24.5475 14.4449 27.4275 17.9999 27.4275C21.5549 27.4275 24.4349 24.5475 24.4349 20.9925C24.4349 18.63 22.6349 15.9525 20.8799 13.365ZM13.0724 20.9925C13.0724 20.7675 13.2524 20.61 13.4549 20.61C13.6799 20.61 13.8374 20.79 13.8374 20.9925C13.8374 22.815 15.0749 24.4575 16.8299 24.975C17.0324 25.0425 17.1674 25.245 17.0999 25.47C17.0549 25.65 16.8974 25.7625 16.7174 25.7625C16.6724 25.7625 16.6499 25.7625 16.6049 25.74C15.5924 25.4475 14.6924 24.8175 14.0624 23.985C13.4324 23.1075 13.0724 22.0725 13.0724 20.9925ZM14.4674 18.765C14.3099 19.1025 14.1749 19.44 14.0849 19.755C14.0399 19.9125 13.8824 20.025 13.7249 20.025C13.6799 20.025 13.6574 20.025 13.6124 20.0025C13.3874 19.935 13.2749 19.71 13.3424 19.5075C13.4549 19.17 13.5899 18.8325 13.7474 18.45C13.8374 18.2475 14.0624 18.1575 14.2649 18.2475C14.4674 18.3375 14.5574 18.5625 14.4674 18.765Z" fill="white"/>
</svg>
