<svg width="36" height="36" viewBox="0 0 36 36" fill="none" xmlns="http://www.w3.org/2000/svg">
<path d="M18 36C27.9411 36 36 27.9411 36 18C36 8.05887 27.9411 0 18 0C8.05887 0 0 8.05887 0 18C0 27.9411 8.05887 36 18 36Z" fill="#F6CEB4"/>
<path d="M23.1973 21.465C23.4223 21.3525 23.6698 21.465 23.7598 21.6675C23.8273 21.78 23.8273 21.915 23.7823 22.0275L24.2998 23.715L23.3098 22.2525C23.1973 22.23 23.0848 22.14 23.0173 22.0275C22.9048 21.825 22.9948 21.555 23.1973 21.465ZM17.3023 14.1525C17.7073 13.4325 17.4598 12.5325 16.7623 12.1275C16.0423 11.7 15.1423 11.9475 14.7373 12.6675L12.4423 16.6275C12.8248 17.1225 12.9148 17.8425 12.5548 18.4275L12.0148 19.3725C11.5648 20.16 10.5748 20.43 9.80978 19.98C9.04478 19.53 8.77478 18.54 9.20228 17.7525L9.76478 16.8075C10.1023 16.245 10.6873 15.975 11.2723 15.9975L13.5898 11.9925C14.3548 10.6425 16.0873 10.1925 17.4148 10.9575C18.7648 11.7225 19.2148 13.455 18.4498 14.805L17.0098 17.28L15.8173 19.3725L14.3773 21.87C13.9723 22.5675 14.2198 23.49 14.9173 23.895C15.6373 24.3 16.5373 24.0525 16.9423 23.355L17.3248 22.7025L16.5823 22.2525C16.1098 21.9825 15.9748 21.42 16.2223 20.9475L20.9923 12.6675C21.2623 12.2175 21.8473 12.06 22.2973 12.33L26.5498 14.7825C26.9773 15.0525 27.1348 15.615 26.8873 16.0875L25.0648 19.215C26.5498 20.07 27.0673 21.9825 26.2123 23.4675C25.3573 24.9525 23.4448 25.4475 21.9598 24.5925C21.9598 24.5925 21.9373 24.5925 21.9148 24.57C21.6223 24.84 21.1723 24.9075 20.8123 24.705L18.4498 23.355L18.0673 24.03C17.3023 25.3575 15.5923 25.83 14.2423 25.0425C12.9148 24.2775 12.4423 22.545 13.2298 21.2175L14.6698 18.72L15.8623 16.65L17.3023 14.1525ZM25.3798 22.9725C26.0098 21.8925 25.6498 20.52 24.5698 19.89C23.4898 19.26 22.1173 19.6425 21.4873 20.7225C20.8798 21.8025 21.2398 23.175 22.2973 23.805C23.3773 24.435 24.7723 24.0525 25.3798 22.9725Z" fill="white"/>
</svg>
