<svg width="18" height="19" viewBox="0 0 18 19" fill="none" xmlns="http://www.w3.org/2000/svg">
<circle cx="9" cy="9.16797" r="9" fill="#E4FFEC"/>
<path d="M7.33337 6.56384C7.16254 6.56384 7.02087 6.42218 7.02087 6.25134V5.00134C7.02087 4.83051 7.16254 4.68884 7.33337 4.68884C7.50421 4.68884 7.64587 4.83051 7.64587 5.00134V6.25134C7.64587 6.42218 7.50421 6.56384 7.33337 6.56384Z" fill="#3E4543"/>
<path d="M10.6666 6.56384C10.4958 6.56384 10.3541 6.42218 10.3541 6.25134V5.00134C10.3541 4.83051 10.4958 4.68884 10.6666 4.68884C10.8375 4.68884 10.9791 4.83051 10.9791 5.00134V6.25134C10.9791 6.42218 10.8375 6.56384 10.6666 6.56384Z" fill="#3E4543"/>
<path d="M12.5417 8.26794H5.45837C5.28754 8.26794 5.14587 8.12628 5.14587 7.95544C5.14587 7.78461 5.28754 7.64294 5.45837 7.64294H12.5417C12.7125 7.64294 12.8542 7.78461 12.8542 7.95544C12.8542 8.12628 12.7125 8.26794 12.5417 8.26794Z" fill="#3E4543"/>
<path d="M10.6667 13.6472H7.33333C5.8125 13.6472 4.9375 12.7722 4.9375 11.2513V7.70968C4.9375 6.18884 5.8125 5.31384 7.33333 5.31384H10.6667C12.1875 5.31384 13.0625 6.18884 13.0625 7.70968V11.2513C13.0625 12.7722 12.1875 13.6472 10.6667 13.6472ZM7.33333 5.93884C6.14167 5.93884 5.5625 6.51801 5.5625 7.70968V11.2513C5.5625 12.443 6.14167 13.0222 7.33333 13.0222H10.6667C11.8583 13.0222 12.4375 12.443 12.4375 11.2513V7.70968C12.4375 6.51801 11.8583 5.93884 10.6667 5.93884H7.33333Z" fill="#3E4543"/>
<path d="M7.54167 10.2097C7.4875 10.2097 7.43333 10.1972 7.38333 10.1764C7.33333 10.1555 7.2875 10.1263 7.24584 10.0888C7.20834 10.0472 7.17916 10.0013 7.15833 9.95135C7.13749 9.90135 7.125 9.84718 7.125 9.79301C7.125 9.68468 7.17084 9.57635 7.24584 9.49718C7.2875 9.45968 7.33333 9.43051 7.38333 9.40968C7.45833 9.37634 7.54167 9.36801 7.62501 9.38468C7.65001 9.38884 7.675 9.39718 7.7 9.40968C7.725 9.41801 7.75 9.43052 7.775 9.44719C7.79583 9.46385 7.81666 9.48052 7.8375 9.49718C7.85416 9.51802 7.87499 9.53885 7.88749 9.55968C7.90416 9.58468 7.91667 9.60968 7.92501 9.63468C7.93751 9.65968 7.94584 9.68468 7.95 9.70968C7.95417 9.73884 7.95833 9.76385 7.95833 9.79301C7.95833 9.90135 7.9125 10.0097 7.8375 10.0888C7.75833 10.1638 7.65 10.2097 7.54167 10.2097Z" fill="#3E4543"/>
<path d="M9.00004 10.2096C8.89171 10.2096 8.78338 10.1637 8.70421 10.0887C8.68754 10.0679 8.67088 10.0471 8.65421 10.0262C8.63755 10.0012 8.62504 9.97625 8.6167 9.95125C8.6042 9.92625 8.59587 9.90126 8.5917 9.87626C8.58754 9.84709 8.58337 9.82208 8.58337 9.79292C8.58337 9.73875 8.59587 9.68458 8.6167 9.63458C8.63754 9.58458 8.66671 9.53875 8.70421 9.49709C8.82088 9.38042 9.00838 9.34291 9.15838 9.40958C9.21254 9.43041 9.2542 9.45959 9.29587 9.49709C9.37087 9.57625 9.41671 9.68458 9.41671 9.79292C9.41671 9.82208 9.41255 9.84709 9.40838 9.87626C9.40421 9.90126 9.39588 9.92625 9.38338 9.95125C9.37505 9.97625 9.36254 10.0012 9.34587 10.0262C9.3292 10.0471 9.31254 10.0679 9.29587 10.0887C9.2542 10.1262 9.21254 10.1554 9.15838 10.1763C9.10838 10.1971 9.05421 10.2096 9.00004 10.2096Z" fill="#3E4543"/>
<path d="M7.54167 11.668C7.4875 11.668 7.43333 11.6555 7.38333 11.6346C7.33333 11.6138 7.2875 11.5846 7.24584 11.5471C7.20834 11.5055 7.17916 11.4638 7.15833 11.4096C7.13749 11.3596 7.125 11.3055 7.125 11.2513C7.125 11.143 7.17084 11.0346 7.24584 10.9555C7.2875 10.918 7.33333 10.8888 7.38333 10.868C7.5375 10.8013 7.72083 10.8388 7.8375 10.9555C7.85416 10.9763 7.87499 10.9971 7.88749 11.018C7.90416 11.043 7.91667 11.068 7.92501 11.093C7.93751 11.118 7.94584 11.143 7.95 11.1721C7.95417 11.1971 7.95833 11.2263 7.95833 11.2513C7.95833 11.3596 7.9125 11.468 7.8375 11.5471C7.75833 11.6221 7.65 11.668 7.54167 11.668Z" fill="#3E4543"/>
</svg>
