<svg width="36" height="36" viewBox="0 0 36 36" fill="none" xmlns="http://www.w3.org/2000/svg">
<path d="M18 36C27.9411 36 36 27.9411 36 18C36 8.05887 27.9411 0 18 0C8.05887 0 0 8.05887 0 18C0 27.9411 8.05887 36 18 36Z" fill="#5FCCC8"/>
<path fill-rule="evenodd" clip-rule="evenodd" d="M23.8275 24.9524H12.1725C11.4975 24.9524 10.9575 24.4124 10.9575 23.7374V13.5674C10.9575 12.8924 11.4975 12.3524 12.1725 12.3524H12.96C13.2075 12.3524 13.3875 12.5324 13.3875 12.7799V13.0499C13.3875 13.6349 13.8375 14.1299 14.4225 14.1299C15.0075 14.1524 15.48 13.7024 15.5025 13.1174C15.5025 13.0949 15.5025 13.0724 15.5025 13.0499V12.7799C15.5025 12.5324 15.705 12.3524 15.93 12.3524H20.0475C20.295 12.3524 20.475 12.5324 20.475 12.7799V13.0499C20.475 13.6349 20.925 14.1299 21.51 14.1299C22.095 14.1524 22.5675 13.7024 22.59 13.1174C22.59 13.0949 22.59 13.0724 22.59 13.0499V12.7799C22.59 12.5324 22.7925 12.3524 23.0175 12.3524H23.805C24.48 12.3524 25.02 12.8924 25.02 13.5674V23.7374C25.065 24.4124 24.5025 24.9524 23.8275 24.9524ZM24.345 15.4124H11.655V23.6474C11.655 23.9849 11.925 24.2549 12.2625 24.2549H23.7375C24.075 24.2549 24.345 23.9849 24.345 23.6474V15.4124ZM21.5325 13.6574C21.195 13.6574 20.925 13.3874 20.925 13.0499V11.6549C20.925 11.3174 21.195 11.0474 21.5325 11.0474C21.87 11.0474 22.14 11.3174 22.14 11.6549V13.0499C22.1625 13.3874 21.87 13.6574 21.5325 13.6574ZM14.445 13.6574C14.1075 13.6574 13.8375 13.3874 13.8375 13.0499V11.6549C13.8375 11.3174 14.1075 11.0474 14.445 11.0474C14.7825 11.0474 15.0525 11.3174 15.0525 11.6549V13.0499C15.0525 13.3874 14.7825 13.6574 14.445 13.6574Z" fill="white"/>
<path fill-rule="evenodd" clip-rule="evenodd" d="M19.395 23.31C18.945 23.31 18.5625 22.9275 18.5625 22.4775C18.5625 22.0275 18.945 21.645 19.395 21.645C19.845 21.645 20.2275 22.0275 20.2275 22.4775C20.2275 22.9275 19.845 23.31 19.395 23.31ZM19.395 22.0725C19.17 22.0725 18.99 22.2525 18.99 22.4775C18.99 22.7025 19.17 22.8825 19.395 22.8825C19.62 22.8825 19.8 22.7025 19.8 22.4775C19.8 22.2525 19.62 22.0725 19.395 22.0725Z" fill="white"/>
<path fill-rule="evenodd" clip-rule="evenodd" d="M22.2075 18.0449C21.7575 18.0449 21.375 17.6624 21.375 17.2124C21.375 16.7624 21.7575 16.3799 22.2075 16.3799C22.6575 16.3799 23.04 16.7624 23.04 17.2124C23.04 17.6624 22.6575 18.0449 22.2075 18.0449ZM19.395 20.6774C18.945 20.6774 18.5625 20.2949 18.5625 19.8449C18.5625 19.3949 18.945 19.0124 19.395 19.0124C19.845 19.0124 20.2275 19.3949 20.2275 19.8449C20.2275 20.2949 19.8675 20.6774 19.395 20.6774ZM19.395 18.0449C18.945 18.0449 18.5625 17.6624 18.5625 17.2124C18.5625 16.7624 18.945 16.3799 19.395 16.3799C19.845 16.3799 20.2275 16.7624 20.2275 17.2124C20.2275 17.6624 19.8675 18.0449 19.395 18.0449ZM16.5825 23.3099C16.1325 23.3099 15.75 22.9274 15.75 22.4774C15.75 22.0274 16.1325 21.6449 16.5825 21.6449C17.0325 21.6449 17.415 22.0274 17.415 22.4774C17.415 22.9274 17.055 23.2874 16.5825 23.3099ZM16.5825 20.6774C16.1325 20.6774 15.75 20.2949 15.75 19.8449C15.75 19.3949 16.1325 19.0124 16.5825 19.0124C17.0325 19.0124 17.415 19.3949 17.415 19.8449C17.415 20.2949 17.055 20.6774 16.5825 20.6774ZM16.5825 18.0449C16.1325 18.0449 15.75 17.6624 15.75 17.2124C15.75 16.7624 16.1325 16.3799 16.5825 16.3799C17.0325 16.3799 17.415 16.7624 17.415 17.2124C17.415 17.6624 17.055 18.0449 16.5825 18.0449ZM13.7925 23.3099C13.3425 23.3099 12.96 22.9274 12.96 22.4774C12.96 22.0274 13.3425 21.6449 13.7925 21.6449C14.2425 21.6449 14.625 22.0274 14.625 22.4774C14.625 22.9274 14.2425 23.2874 13.7925 23.3099ZM13.7925 20.6774C13.3425 20.6774 12.96 20.2949 12.96 19.8449C12.96 19.3949 13.3425 19.0124 13.7925 19.0124C14.2425 19.0124 14.625 19.3949 14.625 19.8449C14.625 20.2949 14.2425 20.6774 13.7925 20.6774ZM22.2075 19.0124C22.6575 19.0124 23.04 19.3949 23.04 19.8449C23.04 20.2949 22.6575 20.6774 22.2075 20.6774C21.7575 20.6774 21.375 20.2949 21.375 19.8449C21.375 19.3724 21.735 19.0124 22.2075 19.0124Z" fill="white"/>
</svg>
