<svg width="36" height="36" viewBox="0 0 36 36" fill="none" xmlns="http://www.w3.org/2000/svg">
<path d="M18 36C27.9411 36 36 27.9411 36 18C36 8.05887 27.9411 0 18 0C8.05887 0 0 8.05887 0 18C0 27.9411 8.05887 36 18 36Z" fill="#5FCCC8"/>
<path fill-rule="evenodd" clip-rule="evenodd" d="M23.8275 24.9525H12.1725C11.4975 24.9525 10.9575 24.4125 10.9575 23.7375V13.5675C10.9575 12.8925 11.4975 12.3525 12.1725 12.3525H12.96C13.2075 12.3525 13.3875 12.5325 13.3875 12.78V13.05C13.3875 13.635 13.8375 14.13 14.4225 14.13C15.0075 14.1525 15.48 13.7025 15.5025 13.1175C15.5025 13.095 15.5025 13.0725 15.5025 13.05V12.78C15.5025 12.5325 15.705 12.3525 15.93 12.3525H20.0475C20.295 12.3525 20.475 12.5325 20.475 12.78V13.05C20.475 13.635 20.925 14.13 21.51 14.13C22.095 14.1525 22.5675 13.7025 22.59 13.1175C22.59 13.095 22.59 13.0725 22.59 13.05V12.78C22.59 12.5325 22.7925 12.3525 23.0175 12.3525H23.805C24.48 12.3525 25.02 12.8925 25.02 13.5675V23.7375C25.065 24.4125 24.5025 24.9525 23.8275 24.9525ZM24.345 15.4125H11.655V23.6475C11.655 23.985 11.925 24.255 12.2625 24.255H23.7375C24.075 24.255 24.345 23.985 24.345 23.6475V15.4125ZM21.5325 13.6575C21.195 13.6575 20.925 13.3875 20.925 13.05V11.655C20.925 11.3175 21.195 11.0475 21.5325 11.0475C21.87 11.0475 22.14 11.3175 22.14 11.655V13.05C22.1625 13.3875 21.87 13.6575 21.5325 13.6575ZM14.445 13.6575C14.1075 13.6575 13.8375 13.3875 13.8375 13.05V11.655C13.8375 11.3175 14.1075 11.0475 14.445 11.0475C14.7825 11.0475 15.0525 11.3175 15.0525 11.655V13.05C15.0525 13.3875 14.7825 13.6575 14.445 13.6575Z" fill="white"/>
<path fill-rule="evenodd" clip-rule="evenodd" d="M19.395 23.31C18.945 23.31 18.5625 22.9275 18.5625 22.4775C18.5625 22.0275 18.945 21.645 19.395 21.645C19.845 21.645 20.2275 22.0275 20.2275 22.4775C20.2275 22.9275 19.845 23.31 19.395 23.31ZM19.395 22.0725C19.17 22.0725 18.99 22.2525 18.99 22.4775C18.99 22.7025 19.17 22.8825 19.395 22.8825C19.62 22.8825 19.8 22.7025 19.8 22.4775C19.8 22.2525 19.62 22.0725 19.395 22.0725Z" fill="white"/>
<path fill-rule="evenodd" clip-rule="evenodd" d="M22.2075 18.045C21.7575 18.045 21.375 17.6625 21.375 17.2125C21.375 16.7625 21.7575 16.38 22.2075 16.38C22.6575 16.38 23.04 16.7625 23.04 17.2125C23.04 17.6625 22.6575 18.045 22.2075 18.045ZM19.395 20.6775C18.945 20.6775 18.5625 20.295 18.5625 19.845C18.5625 19.395 18.945 19.0125 19.395 19.0125C19.845 19.0125 20.2275 19.395 20.2275 19.845C20.2275 20.295 19.8675 20.6775 19.395 20.6775ZM19.395 18.045C18.945 18.045 18.5625 17.6625 18.5625 17.2125C18.5625 16.7625 18.945 16.38 19.395 16.38C19.845 16.38 20.2275 16.7625 20.2275 17.2125C20.2275 17.6625 19.8675 18.045 19.395 18.045ZM16.5825 23.31C16.1325 23.31 15.75 22.9275 15.75 22.4775C15.75 22.0275 16.1325 21.645 16.5825 21.645C17.0325 21.645 17.415 22.0275 17.415 22.4775C17.415 22.9275 17.055 23.2875 16.5825 23.31ZM16.5825 20.6775C16.1325 20.6775 15.75 20.295 15.75 19.845C15.75 19.395 16.1325 19.0125 16.5825 19.0125C17.0325 19.0125 17.415 19.395 17.415 19.845C17.415 20.295 17.055 20.6775 16.5825 20.6775ZM16.5825 18.045C16.1325 18.045 15.75 17.6625 15.75 17.2125C15.75 16.7625 16.1325 16.38 16.5825 16.38C17.0325 16.38 17.415 16.7625 17.415 17.2125C17.415 17.6625 17.055 18.045 16.5825 18.045ZM13.7925 23.31C13.3425 23.31 12.96 22.9275 12.96 22.4775C12.96 22.0275 13.3425 21.645 13.7925 21.645C14.2425 21.645 14.625 22.0275 14.625 22.4775C14.625 22.9275 14.2425 23.2875 13.7925 23.31ZM13.7925 20.6775C13.3425 20.6775 12.96 20.295 12.96 19.845C12.96 19.395 13.3425 19.0125 13.7925 19.0125C14.2425 19.0125 14.625 19.395 14.625 19.845C14.625 20.295 14.2425 20.6775 13.7925 20.6775ZM22.2075 19.0125C22.6575 19.0125 23.04 19.395 23.04 19.845C23.04 20.295 22.6575 20.6775 22.2075 20.6775C21.7575 20.6775 21.375 20.295 21.375 19.845C21.375 19.3725 21.735 19.0125 22.2075 19.0125Z" fill="white"/>
</svg>
