<svg width="19" height="19" viewBox="0 0 19 19" fill="none" xmlns="http://www.w3.org/2000/svg">
<path d="M9.5 19C14.7467 19 19 14.7467 19 9.5C19 4.25329 14.7467 0 9.5 0C4.25329 0 0 4.25329 0 9.5C0 14.7467 4.25329 19 9.5 19Z" fill="#F6CEB4"/>
<path fill-rule="evenodd" clip-rule="evenodd" d="M12.5756 13.1693H6.42433C6.06808 13.1693 5.78308 12.8843 5.78308 12.5281V7.16057C5.78308 6.80432 6.06808 6.51932 6.42433 6.51932H6.83996C6.97058 6.51932 7.06558 6.61432 7.06558 6.74494V6.88744C7.06558 7.19619 7.30308 7.45744 7.61183 7.45744C7.92058 7.46932 8.16996 7.23182 8.18183 6.92307C8.18183 6.91119 8.18183 6.89932 8.18183 6.88744V6.74494C8.18183 6.61432 8.28871 6.51932 8.40746 6.51932H10.5806C10.7112 6.51932 10.8062 6.61432 10.8062 6.74494V6.88744C10.8062 7.19619 11.0437 7.45744 11.3525 7.45744C11.6612 7.46932 11.9106 7.23182 11.9225 6.92307C11.9225 6.91119 11.9225 6.89932 11.9225 6.88744V6.74494C11.9225 6.61432 12.0293 6.51932 12.1481 6.51932H12.5637C12.92 6.51932 13.205 6.80432 13.205 7.16057V12.5281C13.2287 12.8843 12.9318 13.1693 12.5756 13.1693ZM12.8487 8.13432H6.15121V12.4806C6.15121 12.6587 6.29371 12.8012 6.47183 12.8012H12.5281C12.7062 12.8012 12.8487 12.6587 12.8487 12.4806V8.13432ZM11.3643 7.20807C11.1862 7.20807 11.0437 7.06557 11.0437 6.88744V6.15119C11.0437 5.97307 11.1862 5.83057 11.3643 5.83057C11.5425 5.83057 11.685 5.97307 11.685 6.15119V6.88744C11.6968 7.06557 11.5425 7.20807 11.3643 7.20807ZM7.62371 7.20807C7.44558 7.20807 7.30308 7.06557 7.30308 6.88744V6.15119C7.30308 5.97307 7.44558 5.83057 7.62371 5.83057C7.80183 5.83057 7.94433 5.97307 7.94433 6.15119V6.88744C7.94433 7.06557 7.80183 7.20807 7.62371 7.20807Z" fill="white"/>
<path fill-rule="evenodd" clip-rule="evenodd" d="M10.2362 12.3025C9.99875 12.3025 9.79688 12.1006 9.79688 11.8631C9.79688 11.6256 9.99875 11.4237 10.2362 11.4237C10.4737 11.4237 10.6756 11.6256 10.6756 11.8631C10.6756 12.1006 10.4737 12.3025 10.2362 12.3025ZM10.2362 11.6493C10.1175 11.6493 10.0225 11.7443 10.0225 11.8631C10.0225 11.9818 10.1175 12.0768 10.2362 12.0768C10.355 12.0768 10.45 11.9818 10.45 11.8631C10.45 11.7443 10.355 11.6493 10.2362 11.6493Z" fill="white"/>
<path fill-rule="evenodd" clip-rule="evenodd" d="M11.7206 9.52365C11.4831 9.52365 11.2812 9.32177 11.2812 9.08427C11.2812 8.84677 11.4831 8.6449 11.7206 8.6449C11.9581 8.6449 12.16 8.84677 12.16 9.08427C12.16 9.32177 11.9581 9.52365 11.7206 9.52365ZM10.2362 10.913C9.99872 10.913 9.79684 10.7111 9.79684 10.4736C9.79684 10.2361 9.99872 10.0343 10.2362 10.0343C10.4737 10.0343 10.6756 10.2361 10.6756 10.4736C10.6756 10.7111 10.4856 10.913 10.2362 10.913ZM10.2362 9.52365C9.99872 9.52365 9.79684 9.32177 9.79684 9.08427C9.79684 8.84677 9.99872 8.6449 10.2362 8.6449C10.4737 8.6449 10.6756 8.84677 10.6756 9.08427C10.6756 9.32177 10.4856 9.52365 10.2362 9.52365ZM8.75184 12.3024C8.51434 12.3024 8.31247 12.1005 8.31247 11.863C8.31247 11.6255 8.51434 11.4236 8.75184 11.4236C8.98934 11.4236 9.19122 11.6255 9.19122 11.863C9.19122 12.1005 9.00122 12.2905 8.75184 12.3024ZM8.75184 10.913C8.51434 10.913 8.31247 10.7111 8.31247 10.4736C8.31247 10.2361 8.51434 10.0343 8.75184 10.0343C8.98934 10.0343 9.19122 10.2361 9.19122 10.4736C9.19122 10.7111 9.00122 10.913 8.75184 10.913ZM8.75184 9.52365C8.51434 9.52365 8.31247 9.32177 8.31247 9.08427C8.31247 8.84677 8.51434 8.6449 8.75184 8.6449C8.98934 8.6449 9.19122 8.84677 9.19122 9.08427C9.19122 9.32177 9.00122 9.52365 8.75184 9.52365ZM7.27934 12.3024C7.04184 12.3024 6.83997 12.1005 6.83997 11.863C6.83997 11.6255 7.04184 11.4236 7.27934 11.4236C7.51684 11.4236 7.71872 11.6255 7.71872 11.863C7.71872 12.1005 7.51684 12.2905 7.27934 12.3024ZM7.27934 10.913C7.04184 10.913 6.83997 10.7111 6.83997 10.4736C6.83997 10.2361 7.04184 10.0343 7.27934 10.0343C7.51684 10.0343 7.71872 10.2361 7.71872 10.4736C7.71872 10.7111 7.51684 10.913 7.27934 10.913ZM11.7206 10.0343C11.9581 10.0343 12.16 10.2361 12.16 10.4736C12.16 10.7111 11.9581 10.913 11.7206 10.913C11.4831 10.913 11.2812 10.7111 11.2812 10.4736C11.2812 10.2243 11.4712 10.0343 11.7206 10.0343Z" fill="white"/>
</svg>
