<svg width="16" height="14" viewBox="0 0 16 14" fill="none" xmlns="http://www.w3.org/2000/svg">
<path fill-rule="evenodd" clip-rule="evenodd" d="M13.8275 13.9524H2.17252C1.49752 13.9524 0.95752 13.4124 0.95752 12.7374V2.56736C0.95752 1.89236 1.49752 1.35236 2.17252 1.35236H2.96002C3.20752 1.35236 3.38752 1.53236 3.38752 1.77986V2.04986C3.38752 2.63486 3.83752 3.12986 4.42252 3.12986C5.00752 3.15236 5.48002 2.70236 5.50252 2.11736C5.50252 2.09486 5.50252 2.07236 5.50252 2.04986V1.77986C5.50252 1.53236 5.70502 1.35236 5.93002 1.35236H10.0475C10.295 1.35236 10.475 1.53236 10.475 1.77986V2.04986C10.475 2.63486 10.925 3.12986 11.51 3.12986C12.095 3.15236 12.5675 2.70236 12.59 2.11736C12.59 2.09486 12.59 2.07236 12.59 2.04986V1.77986C12.59 1.53236 12.7925 1.35236 13.0175 1.35236H13.805C14.48 1.35236 15.02 1.89236 15.02 2.56736V12.7374C15.065 13.4124 14.5025 13.9524 13.8275 13.9524ZM14.345 4.41236H1.65502V12.6474C1.65502 12.9849 1.92502 13.2549 2.26252 13.2549H13.7375C14.075 13.2549 14.345 12.9849 14.345 12.6474V4.41236ZM11.5325 2.65736C11.195 2.65736 10.925 2.38736 10.925 2.04986V0.654863C10.925 0.317363 11.195 0.0473633 11.5325 0.0473633C11.87 0.0473633 12.14 0.317363 12.14 0.654863V2.04986C12.1625 2.38736 11.87 2.65736 11.5325 2.65736ZM4.44502 2.65736C4.10752 2.65736 3.83752 2.38736 3.83752 2.04986V0.654863C3.83752 0.317363 4.10752 0.0473633 4.44502 0.0473633C4.78252 0.0473633 5.05252 0.317363 5.05252 0.654863V2.04986C5.05252 2.38736 4.78252 2.65736 4.44502 2.65736Z" fill="white"/>
</svg>
