<svg width="36" height="36" viewBox="0 0 36 36" fill="none" xmlns="http://www.w3.org/2000/svg">
<path d="M18 36C27.9411 36 36 27.9411 36 18C36 8.05887 27.9411 0 18 0C8.05887 0 0 8.05887 0 18C0 27.9411 8.05887 36 18 36Z" fill="#5FCCC8"/>
<path fill-rule="evenodd" clip-rule="evenodd" d="M17.2945 19.7328C16.3099 18.8303 15.5168 17.7637 14.8604 16.6424C14.1493 15.3843 14.8331 14.7279 15.4621 14.1262C15.8176 13.798 16.1732 13.4425 16.5287 13.087C17.0757 12.5947 17.0484 12.4032 16.3646 11.6648C15.216 10.4614 14.0946 9.23072 12.946 8C11.4691 8.46494 10.6213 8.79313 9.63671 10.2973C9.06237 11.2546 8.84358 11.7195 9.11707 13.0323C9.77345 16.3689 12.2622 19.4593 14.9425 22.0575C17.568 24.7378 20.6311 27.2265 23.9677 27.8829C25.2805 28.1564 25.7728 27.9376 26.73 27.3633C28.2342 26.3787 28.5624 25.5309 29 24.054C27.7693 22.9327 26.5659 21.784 25.3352 20.6627C24.5968 19.979 24.4053 19.9516 23.913 20.4713C23.5575 20.8268 23.2293 21.1824 22.8738 21.5379C22.2721 22.1669 21.6157 22.8507 20.3576 22.1396C19.2637 21.5105 18.197 20.6901 17.2945 19.7328Z" fill="white"/>
</svg>
