<svg width="77" height="101" viewBox="0 0 77 101" fill="none" xmlns="http://www.w3.org/2000/svg">
<rect width="77" height="77" rx="38.5" fill="#FF7E7C"/>
<path d="M29.2568 46.0703C28.876 46.4512 28.8613 47.0957 29.2568 47.4766C29.6377 47.8721 30.2822 47.8574 30.6631 47.4766L38.5 39.6396L46.3369 47.4766C46.7178 47.8574 47.3623 47.8721 47.7432 47.4766C48.1387 47.0957 48.124 46.4512 47.7432 46.0703L39.9062 38.2334L47.7432 30.3818C48.124 30.001 48.1387 29.3711 47.7432 28.9902C47.3623 28.5947 46.7178 28.6094 46.3369 28.9902L38.5 36.8271L30.6631 28.9902C30.2822 28.6094 29.6377 28.5947 29.2568 28.9902C28.8613 29.3711 28.876 30.001 29.2568 30.3818L37.0938 38.2334L29.2568 46.0703Z" fill="white"/>
<path d="M9.10868 100.7C9.00202 100.7 8.91135 100.663 8.83668 100.588C8.76202 100.514 8.72468 100.423 8.72468 100.316V89.9002C8.72468 89.7829 8.75668 89.6869 8.82068 89.6122C8.89535 89.5375 8.99135 89.5002 9.10868 89.5002H16.1647C16.282 89.5002 16.378 89.5375 16.4527 89.6122C16.5274 89.6869 16.5647 89.7829 16.5647 89.9002V90.9722C16.5647 91.0895 16.5274 91.1855 16.4527 91.2602C16.378 91.3242 16.282 91.3562 16.1647 91.3562H10.9167V94.1562H15.8127C15.93 94.1562 16.026 94.1935 16.1007 94.2682C16.1754 94.3429 16.2127 94.4389 16.2127 94.5562V95.5642C16.2127 95.6815 16.1754 95.7775 16.1007 95.8522C16.026 95.9162 15.93 95.9482 15.8127 95.9482H10.9167V98.8442H16.2927C16.41 98.8442 16.506 98.8815 16.5807 98.9562C16.6554 99.0202 16.6927 99.1109 16.6927 99.2282V100.316C16.6927 100.434 16.6554 100.53 16.5807 100.604C16.506 100.668 16.41 100.7 16.2927 100.7H9.10868ZM18.8854 100.7C18.7788 100.7 18.6881 100.663 18.6134 100.588C18.5388 100.514 18.5014 100.423 18.5014 100.316V92.7642C18.5014 92.6469 18.5388 92.5562 18.6134 92.4922C18.6881 92.4175 18.7788 92.3802 18.8854 92.3802H20.2134C20.3308 92.3802 20.4214 92.4175 20.4854 92.4922C20.5601 92.5562 20.5974 92.6469 20.5974 92.7642V93.4202C21.2481 92.6202 22.1388 92.2202 23.2694 92.2202C24.2508 92.2202 25.0294 92.5402 25.6054 93.1802C26.1814 93.8202 26.4694 94.7002 26.4694 95.8202V100.316C26.4694 100.423 26.4321 100.514 26.3574 100.588C26.2934 100.663 26.2028 100.7 26.0854 100.7H24.6454C24.5388 100.7 24.4481 100.663 24.3734 100.588C24.2988 100.514 24.2614 100.423 24.2614 100.316V95.9162C24.2614 95.2975 24.1068 94.8175 23.7974 94.4762C23.4988 94.1242 23.0668 93.9482 22.5014 93.9482C21.9574 93.9482 21.5201 94.1242 21.1894 94.4762C20.8588 94.8282 20.6934 95.3082 20.6934 95.9162V100.316C20.6934 100.423 20.6561 100.514 20.5814 100.588C20.5174 100.663 20.4268 100.7 20.3094 100.7H18.8854ZM31.5894 100.86C30.5121 100.86 29.6854 100.519 29.1094 99.8362C28.5334 99.1429 28.2188 98.2202 28.1654 97.0682L28.1494 96.5402L28.1654 96.0122C28.2081 94.8815 28.5174 93.9695 29.0934 93.2762C29.6801 92.5722 30.5121 92.2202 31.5894 92.2202C32.6134 92.2202 33.4294 92.5722 34.0374 93.2762V89.7242C34.0374 89.6069 34.0748 89.5162 34.1494 89.4522C34.2241 89.3775 34.3148 89.3402 34.4214 89.3402H35.8134C35.9308 89.3402 36.0214 89.3775 36.0854 89.4522C36.1601 89.5162 36.1974 89.6069 36.1974 89.7242V100.316C36.1974 100.423 36.1601 100.514 36.0854 100.588C36.0214 100.663 35.9308 100.7 35.8134 100.7H34.5174C34.4108 100.7 34.3201 100.663 34.2454 100.588C34.1708 100.514 34.1334 100.423 34.1334 100.316V99.7242C33.5468 100.482 32.6988 100.86 31.5894 100.86ZM32.1974 99.1322C32.8054 99.1322 33.2534 98.9402 33.5414 98.5562C33.8401 98.1615 34.0054 97.6762 34.0374 97.1002C34.0481 96.9722 34.0534 96.7695 34.0534 96.4922C34.0534 96.2042 34.0481 95.9962 34.0374 95.8682C34.0161 95.3349 33.8508 94.8815 33.5414 94.5082C33.2321 94.1349 32.7841 93.9482 32.1974 93.9482C31.0561 93.9482 30.4481 94.6522 30.3734 96.0602L30.3574 96.5402L30.3734 97.0202C30.4481 98.4282 31.0561 99.1322 32.1974 99.1322ZM46.4822 100.86C45.0102 100.86 43.8689 100.487 43.0582 99.7402C42.2582 98.9829 41.8315 97.9109 41.7782 96.5242C41.7675 96.2362 41.7622 95.7669 41.7622 95.1162C41.7622 94.4549 41.7675 93.9749 41.7782 93.6762C41.8315 92.3109 42.2635 91.2495 43.0742 90.4922C43.8849 89.7242 45.0209 89.3402 46.4822 89.3402C47.4315 89.3402 48.2582 89.5055 48.9622 89.8362C49.6662 90.1562 50.2102 90.5989 50.5942 91.1642C50.9889 91.7295 51.1969 92.3642 51.2182 93.0682V93.1002C51.2182 93.1855 51.1809 93.2602 51.1062 93.3242C51.0422 93.3775 50.9675 93.4042 50.8822 93.4042H49.3302C49.2022 93.4042 49.1062 93.3775 49.0422 93.3242C48.9782 93.2602 48.9249 93.1535 48.8822 93.0042C48.7222 92.3429 48.4449 91.8789 48.0502 91.6122C47.6555 91.3349 47.1329 91.1962 46.4822 91.1962C44.9569 91.1962 44.1622 92.0495 44.0982 93.7562C44.0875 94.0442 44.0822 94.4869 44.0822 95.0842C44.0822 95.6815 44.0875 96.1349 44.0982 96.4442C44.1622 98.1509 44.9569 99.0042 46.4822 99.0042C47.1222 99.0042 47.6395 98.8709 48.0342 98.6042C48.4395 98.3269 48.7222 97.8575 48.8822 97.1962C48.9249 97.0469 48.9782 96.9455 49.0422 96.8922C49.1062 96.8282 49.2022 96.7962 49.3302 96.7962H50.8822C50.9782 96.7962 51.0582 96.8282 51.1222 96.8922C51.1969 96.9562 51.2289 97.0362 51.2182 97.1322C51.1969 97.8362 50.9889 98.4709 50.5942 99.0362C50.2102 99.6015 49.6662 100.05 48.9622 100.38C48.2582 100.7 47.4315 100.86 46.4822 100.86ZM55.3393 100.86C54.7953 100.86 54.294 100.754 53.8353 100.54C53.3873 100.316 53.03 100.018 52.7633 99.6442C52.5073 99.2709 52.3793 98.8602 52.3793 98.4122C52.3793 97.6869 52.6726 97.1002 53.2593 96.6522C53.846 96.2042 54.6513 95.9002 55.6753 95.7402L57.8673 95.4202V95.0842C57.8673 94.6255 57.75 94.2789 57.5153 94.0442C57.2806 93.8095 56.9073 93.6922 56.3953 93.6922C56.0433 93.6922 55.7606 93.7562 55.5473 93.8842C55.334 94.0122 55.158 94.1455 55.0193 94.2842C54.8913 94.4122 54.806 94.4975 54.7633 94.5402C54.7206 94.6682 54.6406 94.7322 54.5233 94.7322H53.2753C53.1793 94.7322 53.094 94.7002 53.0193 94.6362C52.9553 94.5722 52.9233 94.4869 52.9233 94.3802C52.934 94.1135 53.062 93.8149 53.3073 93.4842C53.5633 93.1429 53.9526 92.8495 54.4753 92.6042C54.998 92.3482 55.6433 92.2202 56.4113 92.2202C57.67 92.2202 58.5873 92.5029 59.1633 93.0682C59.7393 93.6335 60.0273 94.3749 60.0273 95.2922V100.316C60.0273 100.423 59.99 100.514 59.9153 100.588C59.8513 100.663 59.7606 100.7 59.6433 100.7H58.3153C58.2086 100.7 58.118 100.663 58.0433 100.588C57.9686 100.514 57.9313 100.423 57.9313 100.316V99.6922C57.6966 100.034 57.366 100.316 56.9393 100.54C56.5126 100.754 55.9793 100.86 55.3393 100.86ZM55.8833 99.3242C56.47 99.3242 56.95 99.1322 57.3233 98.7482C57.6966 98.3642 57.8833 97.8095 57.8833 97.0842V96.7642L56.2833 97.0202C55.0566 97.2122 54.4433 97.6229 54.4433 98.2522C54.4433 98.5935 54.582 98.8602 54.8593 99.0522C55.1473 99.2335 55.4886 99.3242 55.8833 99.3242ZM62.4796 100.7C62.3729 100.7 62.2822 100.663 62.2076 100.588C62.1329 100.514 62.0956 100.423 62.0956 100.316V89.7242C62.0956 89.6069 62.1329 89.5162 62.2076 89.4522C62.2822 89.3775 62.3729 89.3402 62.4796 89.3402H63.8236C63.9409 89.3402 64.0316 89.3775 64.0956 89.4522C64.1702 89.5162 64.2076 89.6069 64.2076 89.7242V100.316C64.2076 100.423 64.1702 100.514 64.0956 100.588C64.0316 100.663 63.9409 100.7 63.8236 100.7H62.4796ZM66.7296 100.7C66.6229 100.7 66.5322 100.663 66.4576 100.588C66.3829 100.514 66.3456 100.423 66.3456 100.316V89.7242C66.3456 89.6069 66.3829 89.5162 66.4576 89.4522C66.5322 89.3775 66.6229 89.3402 66.7296 89.3402H68.0736C68.1909 89.3402 68.2816 89.3775 68.3456 89.4522C68.4202 89.5162 68.4576 89.6069 68.4576 89.7242V100.316C68.4576 100.423 68.4202 100.514 68.3456 100.588C68.2816 100.663 68.1909 100.7 68.0736 100.7H66.7296Z" fill="#444444"/>
</svg>
