<svg width="21" height="20" viewBox="0 0 21 20" fill="none" xmlns="http://www.w3.org/2000/svg">
<path d="M1.25684 18.0703C0.875977 18.4512 0.861328 19.0957 1.25684 19.4766C1.6377 19.8721 2.28223 19.8574 2.66309 19.4766L10.5 11.6396L18.3369 19.4766C18.7178 19.8574 19.3623 19.8721 19.7432 19.4766C20.1387 19.0957 20.124 18.4512 19.7432 18.0703L11.9062 10.2334L19.7432 2.38184C20.124 2.00098 20.1387 1.37109 19.7432 0.990234C19.3623 0.594727 18.7178 0.609375 18.3369 0.990234L10.5 8.82715L2.66309 0.990234C2.28223 0.609375 1.6377 0.594727 1.25684 0.990234C0.861328 1.37109 0.875977 2.00098 1.25684 2.38184L9.09375 10.2334L1.25684 18.0703Z" fill="white"/>
</svg>
