<svg width="25" height="24" viewBox="0 0 25 24" fill="none" xmlns="http://www.w3.org/2000/svg">
<path d="M19.1005 8.92616C18.5702 5.35201 15.1896 2.8826 11.5438 3.40248C7.87598 3.92235 5.35708 7.25823 5.90947 10.8107C6.21881 12.8036 7.43407 14.5582 9.22381 15.5546C9.44477 15.6846 9.22381 15.5329 9.90877 15.9012C18.8133 18.9121 19.1668 20.6667 19.1668 20.6667V10.1392V9.61933C19.1447 9.38106 19.1226 9.16444 19.1005 8.92616ZM11.345 10.4208C11.345 10.8324 11.0136 11.1573 10.5937 11.1573C10.1739 11.1573 9.84249 10.8324 9.84249 10.4208C9.84249 10.0092 10.1739 9.68432 10.5937 9.68432C11.0136 9.68432 11.345 10.0092 11.345 10.4208ZM13.5545 10.4208C13.5545 10.8324 13.2231 11.1573 12.8033 11.1573C12.3835 11.1573 12.052 10.8324 12.052 10.4208C12.052 10.0092 12.3835 9.68432 12.8033 9.68432C13.2231 9.68432 13.5545 10.0092 13.5545 10.4208ZM15.7862 10.4208C15.7862 10.8324 15.4548 11.1573 15.035 11.1573C14.6151 11.1573 14.2837 10.8324 14.2837 10.4208C14.2837 10.0092 14.6151 9.68432 15.035 9.68432C15.4327 9.68432 15.7862 10.0092 15.7862 10.4208Z" fill="white"/>
</svg>
