<svg width="36" height="36" viewBox="0 0 36 36" fill="none" xmlns="http://www.w3.org/2000/svg">
<path d="M18 36C27.9411 36 36 27.9411 36 18C36 8.05887 27.9411 0 18 0C8.05887 0 0 8.05887 0 18C0 27.9411 8.05887 36 18 36Z" fill="#5FCCC8"/>
<path fill-rule="evenodd" clip-rule="evenodd" d="M23.0176 6.48001C24.4126 6.48001 25.5376 7.60501 25.5376 9.00001C25.5376 10.395 24.4126 11.52 23.0176 11.52C21.6226 11.52 20.4976 10.395 20.4976 9.00001C20.4976 7.60501 21.6226 6.48001 23.0176 6.48001ZM22.2976 24.03C22.3201 24.12 22.3201 24.2325 22.3426 24.3225L22.4551 27.945C22.4776 28.7775 21.8251 29.4975 20.9701 29.52C20.1376 29.5425 19.4401 28.89 19.3951 28.035L19.2826 24.57C19.1251 23.8275 18.9001 23.13 18.6751 22.4775C18.6301 22.41 18.6076 22.3425 18.5851 22.275H18.4501L18.6076 24.48C18.6076 24.57 18.6076 24.66 18.6076 24.75L18.2476 28.1475C18.1576 28.98 17.4151 29.5875 16.5601 29.4975C15.7276 29.4075 15.1201 28.665 15.2101 27.81L15.5476 24.5475L15.1876 19.665C15.0751 17.9325 15.2326 15.3675 16.6276 12.87L15.3001 12.8025L14.8501 15.1875C14.7151 15.8625 14.0626 16.3125 13.3876 16.2C12.7126 16.065 12.2626 15.4125 12.3751 14.7375L13.0276 11.295C13.1401 10.665 13.7026 10.1925 14.3551 10.2375L19.3501 10.53C19.6201 10.5525 19.8901 10.6425 20.0926 10.8225L21.9826 12.42C22.1851 12.5775 22.2976 12.8025 22.3876 13.005L23.5126 16.0875L26.3701 17.775C26.9776 18.135 27.1576 18.9 26.8201 19.485C26.4601 20.0925 25.6951 20.295 25.1101 19.935L21.9151 18.0675C21.6451 17.9325 21.4426 17.685 21.3301 17.3925L21.1501 16.92C21.1276 16.9875 21.1276 17.055 21.1051 17.1225C20.9251 17.8875 20.8576 18.72 20.8576 19.71C21.0826 20.25 21.3301 20.8575 21.5326 21.4425C21.8251 22.2075 22.0951 23.0625 22.2976 24.03Z" fill="white"/>
<path fill-rule="evenodd" clip-rule="evenodd" d="M10.98 20.07L14.3775 18.8325L12.69 20.2275L13.77 21.015L10.35 22.2525L12.0375 20.8575L10.98 20.07ZM10.4175 17.19L14.04 17.37L11.925 17.9775L12.6 19.125L9 18.9675L11.0925 18.3375L10.4175 17.19Z" fill="white"/>
</svg>
