<svg width="36" height="36" viewBox="0 0 36 36" fill="none" xmlns="http://www.w3.org/2000/svg">
<path d="M18 36C27.9411 36 36 27.9411 36 18C36 8.05887 27.9411 0 18 0C8.05887 0 0 8.05887 0 18C0 27.9411 8.05887 36 18 36Z" fill="#F6CEB4"/>
<path d="M26.5274 16.02H13.2974C12.8249 16.02 12.4424 16.4025 12.4424 16.875V24.5925C12.4424 25.065 12.8249 25.4475 13.2974 25.4475H26.5274C26.9999 25.4475 27.3824 25.065 27.3824 24.5925V16.875C27.3824 16.4025 26.9999 16.02 26.5274 16.02ZM17.1224 19.935C17.1224 20.1825 16.9199 20.385 16.6724 20.385H14.4224C14.1749 20.385 13.9724 20.1825 13.9724 19.935V18.765C13.9724 18.5175 14.1749 18.315 14.4224 18.315H16.6724C16.9199 18.315 17.1224 18.5175 17.1224 18.765V19.935Z" fill="white"/>
<path d="M11.52 23.7825C11.5875 23.94 11.6775 24.0525 11.8125 24.165V18.765L9.85498 19.5525L11.52 23.7825Z" fill="white"/>
<path d="M15.1425 15.39L23.04 12.2625L22.5675 11.07C22.3875 10.62 21.8925 10.4175 21.4425 10.5975L9.15754 15.48C8.70754 15.66 8.50504 16.155 8.68504 16.605L9.15754 17.775L11.835 16.7175C11.9025 15.975 12.5325 15.39 13.2975 15.39H15.1425Z" fill="white"/>
<path d="M24.2774 15.39L23.7374 14.0175L20.2949 15.39H24.2774Z" fill="white"/>
</svg>
