<svg width="36" height="36" viewBox="0 0 36 36" fill="none" xmlns="http://www.w3.org/2000/svg">
<path d="M18 36C27.9411 36 36 27.9411 36 18C36 8.05887 27.9411 0 18 0C8.05887 0 0 8.05887 0 18C0 27.9411 8.05887 36 18 36Z" fill="#5FCCC8"/>
<path d="M19.8223 11.07C20.4298 11.2275 20.9698 11.43 21.4648 11.7C21.9598 11.97 22.3648 12.285 22.7248 12.6225C23.0623 12.96 23.3548 13.32 23.5348 13.7025C23.7373 14.085 23.8498 14.445 23.8498 14.7825C23.8498 14.895 23.8048 15.0075 23.7148 15.0975C23.6248 15.1875 23.5348 15.2325 23.4223 15.2325H20.8123C20.6323 15.2325 20.4748 15.21 20.3623 15.1425C20.2498 15.0975 20.1373 15.0075 20.0023 14.895C19.9798 14.85 19.9123 14.7825 19.8223 14.6925C19.7323 14.6025 19.6198 14.5125 19.4398 14.4C19.2823 14.31 19.0798 14.22 18.8548 14.1525C18.6073 14.085 18.3148 14.04 17.9773 14.04C17.7298 14.04 17.4823 14.0625 17.2573 14.085C17.0323 14.1075 16.8073 14.175 16.6273 14.2425C16.4473 14.31 16.2898 14.4225 16.1773 14.5575C16.0648 14.6925 16.0198 14.85 16.0198 15.0525C16.0198 15.255 16.0873 15.4125 16.1998 15.5475C16.3348 15.6825 16.5373 15.795 16.8298 15.9075C17.1223 16.02 17.5273 16.1325 18.0223 16.245C18.5173 16.3575 19.1248 16.47 19.8673 16.6275C20.6098 16.785 21.2398 16.965 21.7798 17.19C22.3198 17.415 22.7923 17.7075 23.1523 18.045C23.5123 18.3825 23.7823 18.7875 23.9623 19.2375C24.1423 19.6875 24.2323 20.25 24.2323 20.8575C24.2323 21.42 24.1198 21.9375 23.9173 22.3875C23.7148 22.86 23.3998 23.265 23.0173 23.625C22.6348 23.985 22.1623 24.2775 21.6223 24.525C21.0823 24.7725 20.4748 24.93 19.8223 25.0425V26.46C19.8223 26.6175 19.7773 26.73 19.6648 26.8425C19.5523 26.955 19.4398 27 19.2823 27H16.6723C16.5148 27 16.4023 26.955 16.2898 26.8425C16.1773 26.73 16.1323 26.6175 16.1323 26.46V24.975C15.5023 24.8175 14.9173 24.615 14.3998 24.345C13.8823 24.075 13.4548 23.76 13.0723 23.4225C12.7123 23.085 12.4198 22.7025 12.2173 22.2975C12.0373 21.915 11.9248 21.51 11.9023 21.105C11.9023 20.9925 11.9473 20.88 12.0373 20.79C12.1273 20.7 12.2173 20.655 12.3298 20.655H14.9398C15.1198 20.655 15.2773 20.6775 15.3898 20.7225C15.5023 20.7675 15.5923 20.835 15.7048 20.925C15.7498 20.97 15.8398 21.06 15.9523 21.195C16.0648 21.33 16.1998 21.4425 16.3798 21.5775C16.5598 21.7125 16.7848 21.825 17.0548 21.915C17.3248 21.9825 17.6623 22.05 18.0673 22.05C18.7648 22.05 19.3723 21.9825 19.8448 21.825C20.3173 21.6675 20.5423 21.375 20.5423 20.97C20.5423 20.7675 20.4523 20.61 20.2723 20.475C20.1148 20.34 19.8673 20.2275 19.5073 20.115C19.1698 20.0025 18.7198 19.89 18.1798 19.7775C17.6398 19.665 17.0098 19.53 16.2673 19.3725C14.8948 19.08 13.8823 18.6075 13.2523 17.91C12.6223 17.2125 12.3073 16.3125 12.3073 15.165C12.3073 14.6925 12.3973 14.2425 12.5773 13.815C12.7573 13.3875 13.0048 12.9825 13.3198 12.6225C13.6573 12.2625 14.0398 11.9475 14.5123 11.6775C14.9848 11.4075 15.5248 11.205 16.1323 11.07V9.58504C16.1323 9.42754 16.1773 9.31504 16.2898 9.20254C16.4023 9.09004 16.5148 9.04504 16.6723 9.04504H19.2823C19.4398 9.04504 19.5523 9.09004 19.6648 9.20254C19.7773 9.31504 19.8223 9.42754 19.8223 9.58504V11.07Z" fill="white"/>
</svg>
