<svg width="36" height="36" viewBox="0 0 36 36" fill="none" xmlns="http://www.w3.org/2000/svg">
<path d="M18 36C27.9411 36 36 27.9411 36 18C36 8.05887 27.9411 0 18 0C8.05887 0 0 8.05887 0 18C0 27.9411 8.05887 36 18 36Z" fill="#5FCCC8"/>
<path d="M18.4502 22.0725C19.3502 22.005 20.2052 21.7125 20.9477 21.285C23.0627 20.0025 23.9852 17.595 23.6027 15.21L22.4552 8.77499H13.5452L12.3977 15.21C12.0152 17.595 12.9152 20.0025 15.0527 21.285C15.7952 21.7125 16.6502 22.005 17.5502 22.0725V26.3475L13.5452 26.7975V27.2475H22.4552V26.7975L18.4502 26.3475V22.0725ZM15.5027 20.3175C15.0752 20.0475 14.6927 19.7325 14.3777 19.35C14.0627 18.99 13.8152 18.585 13.6127 18.135C13.2977 17.37 13.1627 16.515 13.2302 15.6375C13.3427 15.75 13.4777 15.8625 13.6577 15.975C13.8602 16.0875 14.1302 16.2 14.4002 16.2675C14.6702 16.335 14.9852 16.38 15.3227 16.38C15.6377 16.38 15.9527 16.335 16.2452 16.2675C16.5152 16.2 16.7627 16.0875 16.9652 15.975C17.3927 15.7275 17.7302 15.3225 18.0002 15.0075C18.2702 14.6925 18.6077 14.2875 19.0352 14.04C19.2377 13.9275 19.5077 13.815 19.7777 13.7475C20.0477 13.68 20.3627 13.635 20.7002 13.635C21.0152 13.635 21.3302 13.68 21.6227 13.7475C21.8927 13.815 22.1627 13.905 22.3652 14.04C22.4327 14.085 22.5227 14.13 22.5902 14.175L22.7477 15.075C22.9052 16.1325 22.7927 17.19 22.4102 18.1125C22.2302 18.5625 21.9602 18.9675 21.6452 19.35C21.3077 19.7325 20.9252 20.0475 20.4977 20.3175C19.7327 20.7675 18.8777 20.9925 18.0002 20.9925C17.1227 20.9925 16.2677 20.7675 15.5027 20.3175Z" fill="white"/>
</svg>
