<svg width="36" height="36" viewBox="0 0 36 36" fill="none" xmlns="http://www.w3.org/2000/svg">
<path d="M18 36C27.9411 36 36 27.9411 36 18C36 8.05887 27.9411 0 18 0C8.05887 0 0 8.05887 0 18C0 27.9411 8.05887 36 18 36Z" fill="#5FCCC8"/>
<path d="M19.0352 12.7346C18.4727 12.5546 17.5277 12.5546 16.9652 12.7346L9.42773 15.0296C8.86523 15.2096 8.86523 15.4796 9.42773 15.6596L16.9652 17.9546C17.5277 18.1346 18.4727 18.1346 19.0352 17.9546L26.5727 15.6596C27.1352 15.4796 27.1352 15.2096 26.5727 15.0296L19.0352 12.7346Z" fill="white"/>
<path d="M17.1228 19.2818L12.5103 17.8643V21.9593C12.5103 21.9593 13.6128 23.3993 18.0003 23.3993C22.3878 23.3993 23.4903 21.9593 23.4903 21.9593V17.8643L18.8778 19.2818C18.3153 19.4618 17.6853 19.4618 17.1228 19.2818Z" fill="white"/>
<path d="M10.2152 19.9119V16.8519L9.60771 16.6494V19.9119L9.24771 20.5869C9.18021 20.6994 9.15771 20.8344 9.15771 20.9694V21.0144C9.15771 21.4419 9.49521 21.7794 9.92271 21.7794C10.3502 21.7794 10.6877 21.4419 10.6877 21.0144V20.9694C10.6877 20.8344 10.6652 20.7219 10.5977 20.6094L10.2152 19.9119Z" fill="white"/>
</svg>
