<svg width="36" height="36" viewBox="0 0 36 36" fill="none" xmlns="http://www.w3.org/2000/svg">
<path d="M18 36C27.9411 36 36 27.9411 36 18C36 8.05887 27.9411 0 18 0C8.05887 0 0 8.05887 0 18C0 27.9411 8.05887 36 18 36Z" fill="#5FCCC8"/>
<path d="M12.5999 19.7996C13.0499 20.0246 13.0499 20.4746 13.0499 20.9246L12.1499 24.7496C11.9249 25.8746 13.0499 26.5496 13.9499 26.0996L17.3249 24.0746C17.7749 23.8496 18.2249 23.8496 18.6749 24.0746L22.0499 26.0996C22.9499 26.7746 24.0749 25.8746 23.8499 24.7496L22.9499 20.9246C22.9499 20.4746 22.9499 20.0246 23.3999 19.7996L26.3249 17.3246C27.2249 16.6496 26.7749 15.2996 25.6499 15.0746L21.5999 14.8496C21.1499 14.8496 20.6999 14.3996 20.4749 14.1746L19.1249 10.3496C18.6749 9.22461 17.3249 9.22461 16.8749 10.3496L15.2999 13.9496C15.0749 14.3996 14.8499 14.6246 14.3999 14.6246L10.3499 15.0746C9.22494 15.0746 8.77494 16.6496 9.67494 17.3246L12.5999 19.7996Z" fill="white"/>
</svg>
