<svg width="36" height="36" viewBox="0 0 36 36" fill="none" xmlns="http://www.w3.org/2000/svg">
<path d="M18 36C27.9411 36 36 27.9411 36 18C36 8.05887 27.9411 0 18 0C8.05887 0 0 8.05887 0 18C0 27.9411 8.05887 36 18 36Z" fill="#F6CEB4"/>
<path d="M25.7175 11.97H20.43H15.5475H10.26C9.9 11.97 9.585 12.105 9.36 12.33C9.135 12.5775 9 12.8925 9 13.23V16.065H12.825V16.9875H9V23.535C9 23.895 9.135 24.21 9.36 24.435C9.585 24.66 9.9 24.795 10.26 24.795H25.7175C26.0775 24.795 26.3925 24.66 26.6175 24.435C26.8425 24.21 26.9775 23.895 26.9775 23.535V16.9875H23.1525V18.2475C23.1525 18.495 22.95 18.6975 22.7025 18.6975C22.455 18.6975 22.2525 18.495 22.2525 18.2475V14.805C22.2525 14.5575 22.455 14.355 22.7025 14.355C22.95 14.355 23.1525 14.5575 23.1525 14.805V16.065H27V13.23C27 12.87 26.865 12.555 26.64 12.33C26.3925 12.105 26.0775 11.97 25.7175 11.97ZM21.5775 16.9875H14.4V18.2475C14.4 18.495 14.1975 18.6975 13.95 18.6975C13.7025 18.6975 13.5 18.495 13.5 18.2475V14.805C13.5 14.5575 13.7025 14.355 13.95 14.355C14.1975 14.355 14.4 14.5575 14.4 14.805V16.065H21.6V16.9875H21.5775Z" fill="white"/>
<path d="M19.98 9.76501H16.02V11.0475H19.98V9.76501Z" fill="white"/>
</svg>
