<svg width="48" height="48" viewBox="0 0 48 48" fill="none" xmlns="http://www.w3.org/2000/svg">
<path d="M24 48C37.2548 48 48 37.2548 48 24C48 10.7452 37.2548 0 24 0C10.7452 0 0 10.7452 0 24C0 37.2548 10.7452 48 24 48Z" fill="#EEFAF9"/>
<path d="M20.3399 26.91C19.2599 25.83 17.2499 26.04 15.8699 27.42C14.6399 28.65 14.1599 30.69 15.3599 31.89C15.4199 31.95 15.5099 32.01 15.5699 32.04C15.3299 32.31 14.9999 32.46 14.6399 32.46H14.0999C12.6299 32.46 11.3999 33.66 11.3999 35.16C11.3999 35.88 10.8299 36.48 10.1099 36.48C9.71992 36.48 9.41992 36.78 9.41992 37.17C9.41992 37.56 9.71992 37.86 10.1099 37.86C11.5799 37.86 12.8099 36.6 12.8099 35.13C12.8099 34.41 13.3799 33.84 14.0999 33.84H14.6399C15.5999 33.84 16.4399 33.33 16.9199 32.55C17.8799 32.64 18.9899 32.22 19.8599 31.38C21.0899 30.15 21.5399 28.11 20.3399 26.91Z" fill="#5FCCC8"/>
<path d="M24.87 21C24.12 21 23.46 21.63 23.46 22.38C23.46 23.16 24.09 23.79 24.87 23.79C25.65 23.79 26.28 23.16 26.28 22.38C26.28 21.63 25.65 21 24.87 21Z" fill="#5FCCC8"/>
<path d="M23.4599 13.92C18.0299 13.92 13.6199 18.39 13.6199 23.82C13.6199 24.99 13.8299 26.13 14.2499 27.21C14.4299 26.94 14.6399 26.67 14.8799 26.46C16.8599 24.48 19.7399 24.36 21.3299 25.95C22.0799 26.64 22.4399 27.6 22.4399 28.68C22.4399 30 21.8399 31.38 20.8499 32.4C20.6099 32.64 20.3699 32.85 20.0999 33.03C21.1799 33.42 22.3199 33.66 23.4899 33.66C28.9199 33.66 33.4199 29.25 33.4199 23.82C33.4199 18.39 28.8899 13.92 23.4599 13.92ZM24.8699 25.2C23.3099 25.2 22.0499 23.94 22.0499 22.38C22.0499 20.82 23.3099 19.56 24.8699 19.56C26.4299 19.56 27.6899 20.82 27.6899 22.38C27.6899 23.94 26.4299 25.2 24.8699 25.2Z" fill="#5FCCC8"/>
</svg>
