<svg width="48" height="49" viewBox="0 0 48 49" fill="none" xmlns="http://www.w3.org/2000/svg">
<g clip-path="url(#clip0_1495_8298)">
<path d="M24 48.2031C37.2548 48.2031 48 37.4579 48 24.2031C48 10.9482 37.2548 0.203064 24 0.203064C10.7452 0.203064 0 10.9482 0 24.2031C0 37.4579 10.7452 48.2031 24 48.2031Z" fill="#EEFAF9"/>
<path fill-rule="evenodd" clip-rule="evenodd" d="M31.4398 16.0431C30.4498 16.0431 29.0698 16.8231 29.0698 18.4131V22.3731H18.7498V18.4131C18.7498 16.8231 17.3698 16.0431 16.3798 16.0431C15.3898 16.0431 14.0098 16.8231 14.0098 18.4131V29.9931C14.0098 31.2831 15.0598 32.3631 16.3798 32.3631C17.6698 32.3631 18.7498 31.2831 18.7498 29.9931V26.0331H29.0398V29.9631C29.0398 31.2531 30.0898 32.3331 31.4098 32.3331C32.6998 32.3331 33.7798 31.2531 33.7798 29.9631V18.4131C33.8098 16.8231 32.3998 16.0431 31.4398 16.0431Z" fill="#5FCCC8"/>
<path fill-rule="evenodd" clip-rule="evenodd" d="M11.6999 20.2731C11.1599 20.2731 10.3799 20.6931 10.3799 21.5931V26.8431C10.3799 27.5631 10.9799 28.1631 11.6999 28.1631C12.4199 28.1631 13.0199 27.5631 13.0199 26.8431V21.5631C13.0199 20.6931 12.2399 20.2731 11.6999 20.2731Z" fill="#5FCCC8"/>
<path fill-rule="evenodd" clip-rule="evenodd" d="M36.0898 20.2731C35.5498 20.2731 34.7698 20.6931 34.7698 21.5931V26.8431C34.7698 27.5631 35.3698 28.1631 36.0898 28.1631C36.8098 28.1631 37.4098 27.5631 37.4098 26.8431V21.5631C37.4098 20.6931 36.6298 20.2731 36.0898 20.2731Z" fill="#5FCCC8"/>
</g>
<defs>
<clipPath id="clip0_1495_8298">
<rect width="48" height="48" fill="white" transform="translate(0 0.203064)"/>
</clipPath>
</defs>
</svg>
