<svg width="36" height="36" viewBox="0 0 36 36" fill="none" xmlns="http://www.w3.org/2000/svg">
<path d="M18 36C27.9411 36 36 27.9411 36 18C36 8.05887 27.9411 0 18 0C8.05887 0 0 8.05887 0 18C0 27.9411 8.05887 36 18 36Z" fill="#F6CEB4"/>
<path d="M20.4075 18.0001C20.4075 15.9301 19.305 14.1076 17.64 13.1176C17.1675 13.5226 16.83 14.0401 16.65 14.6251C17.82 15.3001 18.6075 16.5601 18.6075 18.0001C18.6075 20.1601 16.8525 21.8926 14.715 21.8926C12.5775 21.8926 10.8 20.1601 10.8 18.0001C10.8 16.2226 12.015 14.7151 13.6575 14.2426C13.815 13.5451 14.085 12.8926 14.445 12.3076C11.4075 12.4426 9 14.9401 9 18.0001C9 20.8126 11.0475 23.1976 13.7925 23.6251V24.5926H12.8925C12.735 24.5926 12.6 24.7276 12.6 24.8851V26.0776C12.6 26.2351 12.735 26.3701 12.8925 26.3701H13.7925V27.2701C13.7925 27.4276 13.9275 27.5626 14.085 27.5626H15.3C15.4575 27.5626 15.5925 27.4276 15.5925 27.2701V26.3701H16.4925C16.65 26.3701 16.785 26.2351 16.785 26.0776V24.8851C16.785 24.7276 16.65 24.5926 16.4925 24.5926H15.5925V23.6251C18.36 23.1976 20.4075 20.8126 20.4075 18.0001Z" fill="white"/>
<path d="M26.7075 8.39258H23.4C23.2425 8.39258 23.1075 8.52758 23.1075 8.68508V9.90008C23.1075 10.0576 23.2425 10.1926 23.4 10.1926H23.9175L23.13 10.9801C22.1625 10.2826 21.015 9.90008 19.8 9.90008C16.65 9.90008 14.1075 12.4651 14.1075 15.5926C14.1075 17.6626 15.21 19.4851 16.875 20.4751C17.325 20.0926 17.6625 19.5751 17.8425 18.9676C16.6725 18.2926 15.885 17.0326 15.885 15.5926C15.885 13.4326 17.64 11.7001 19.7775 11.7001C21.9375 11.7001 23.67 13.4551 23.67 15.5926C23.67 17.3701 22.455 18.8776 20.8125 19.3501C20.7 20.0476 20.43 20.7001 20.07 21.2851C23.085 21.1501 25.4925 18.6526 25.4925 15.5926C25.4925 14.3776 25.11 13.2301 24.4125 12.2401L25.2 11.4751V11.9926C25.2 12.1501 25.335 12.2851 25.4925 12.2851H26.685C26.8425 12.2851 26.9775 12.1501 26.9775 11.9926V8.70758C27 8.52758 26.865 8.39258 26.7075 8.39258Z" fill="white"/>
</svg>
