<svg width="36" height="36" viewBox="0 0 36 36" fill="none" xmlns="http://www.w3.org/2000/svg">
<path d="M18 36C27.9411 36 36 27.9411 36 18C36 8.05887 27.9411 0 18 0C8.05887 0 0 8.05887 0 18C0 27.9411 8.05887 36 18 36Z" fill="#F6CEB4"/>
<path fill-rule="evenodd" clip-rule="evenodd" d="M22.0499 15.2325C22.0499 16.7175 22.0049 18.315 22.0499 19.7775C22.0724 20.6325 23.0174 20.5875 23.2649 20.1825C23.3774 19.98 23.3099 16.245 23.3099 15.7275C23.3099 15.03 23.3999 14.2875 23.1074 13.725C22.3649 12.375 21.4874 12.7125 19.9349 12.7125C18.4274 12.7125 17.4824 12.3525 16.7624 13.725C16.4474 14.31 16.5374 15.03 16.5374 15.7725C16.5374 16.515 16.5374 17.2575 16.5374 18C16.5374 18.3825 16.4699 20.0025 16.6049 20.205C16.7624 20.4075 17.0774 20.52 17.3699 20.4075C17.7299 20.295 17.7524 20.1825 17.7524 19.7325C17.7524 19.035 17.7299 15.615 17.7524 15.21H18.0674C18.1124 16.155 18.0674 17.235 18.0674 18.18V27.045C18.0674 27.4725 17.9999 28.08 18.2249 28.3725C18.4274 28.6425 18.8099 28.845 19.2149 28.665C19.5524 28.5075 19.7549 28.26 19.7549 27.765V21.87C19.7549 21.4425 19.7324 20.835 19.7549 20.43H20.0249C20.0699 20.745 20.0249 25.92 20.0249 26.3925C20.0249 26.8875 20.0024 27.405 20.0249 27.8775C20.0474 28.7775 21.1049 29.0025 21.6224 28.3725C21.8249 28.125 21.7574 27.45 21.7574 27.0675C21.7574 23.1075 21.7349 19.1475 21.7574 15.1875L22.0499 15.2325Z" fill="white"/>
<path fill-rule="evenodd" clip-rule="evenodd" d="M19.6649 8.99997C18.9224 9.15747 18.2924 9.94497 18.4724 10.9125C18.6074 11.7225 19.3049 12.375 20.1824 12.2175C20.9024 12.0825 21.5324 11.3175 21.3749 10.3275C21.2624 9.51747 20.5424 8.84247 19.6649 8.99997Z" fill="white"/>
<path fill-rule="evenodd" clip-rule="evenodd" d="M20.205 8.32498H12.6675V7.22247H20.205V8.32498Z" fill="white"/>
<path fill-rule="evenodd" clip-rule="evenodd" d="M17.7526 9.60747H13.7251V9.15747H17.7526V9.60747Z" fill="white"/>
<path fill-rule="evenodd" clip-rule="evenodd" d="M17.7751 11.1375H13.7251V10.6875H17.7751V11.1375Z" fill="white"/>
<path fill-rule="evenodd" clip-rule="evenodd" d="M17.7751 12.6449H13.7026V12.1949H17.7751V12.6449Z" fill="white"/>
<path fill-rule="evenodd" clip-rule="evenodd" d="M16.2227 14.175H13.6802V13.725H16.2227V14.175Z" fill="white"/>
<path fill-rule="evenodd" clip-rule="evenodd" d="M16.2227 15.705H13.6802V15.2325H16.2227V15.705Z" fill="white"/>
<path fill-rule="evenodd" clip-rule="evenodd" d="M16.2227 17.2124H13.6577V16.7625H16.2227V17.2124Z" fill="white"/>
<path fill-rule="evenodd" clip-rule="evenodd" d="M16.2223 18.7425H13.6348V18.2925H16.2223V18.7425Z" fill="white"/>
<path fill-rule="evenodd" clip-rule="evenodd" d="M16.2223 20.25H13.6348V19.8H16.2223V20.25Z" fill="white"/>
<path fill-rule="evenodd" clip-rule="evenodd" d="M17.7523 21.78H13.6123V21.33H17.7523V21.78Z" fill="white"/>
<path fill-rule="evenodd" clip-rule="evenodd" d="M17.7523 23.31H13.5898V22.8375H17.7523V23.31Z" fill="white"/>
<path fill-rule="evenodd" clip-rule="evenodd" d="M17.7748 24.8175H13.5898V24.3675H17.7748V24.8175Z" fill="white"/>
<path fill-rule="evenodd" clip-rule="evenodd" d="M17.7749 26.3475H13.5674V25.8975H17.7749V26.3475Z" fill="white"/>
<path fill-rule="evenodd" clip-rule="evenodd" d="M17.7524 27.855H13.5449V27.405H17.7524V27.855Z" fill="white"/>
</svg>
