<svg width="36" height="36" viewBox="0 0 36 36" fill="none" xmlns="http://www.w3.org/2000/svg">
<path d="M18 36C27.9411 36 36 27.9411 36 18C36 8.05887 27.9411 0 18 0C8.05887 0 0 8.05887 0 18C0 27.9411 8.05887 36 18 36Z" fill="#F6CEB4"/>
<path d="M24.9073 11.925C21.6223 8.23501 15.9523 7.92001 12.2623 11.205C9.11232 14.0175 8.41482 18.54 10.3273 22.1175L8.81982 25.9425L12.6448 24.9075C15.9973 27.585 20.9023 27.54 24.2098 24.5925C27.8998 21.285 28.2148 15.615 24.9073 11.925ZM19.1473 21.645C19.1473 21.735 19.1248 21.8025 19.0573 21.87C18.9898 21.9375 18.9223 21.96 18.8323 21.96H17.3698C17.2798 21.96 17.2123 21.9375 17.1448 21.87C17.0773 21.8025 17.0548 21.735 17.0548 21.645V20.475C17.0548 20.385 17.0773 20.3175 17.1448 20.25C17.2123 20.1825 17.2798 20.16 17.3698 20.16H18.8323C18.9223 20.16 18.9898 20.1825 19.0573 20.25C19.1248 20.3175 19.1473 20.385 19.1473 20.475V21.645ZM21.1498 16.8075C21.0598 17.01 20.9473 17.2125 20.7898 17.3925C20.6548 17.55 20.4973 17.7075 20.3173 17.8425C20.1598 17.9775 19.9798 18.1125 19.8223 18.2475C19.6648 18.3825 19.5298 18.5175 19.3948 18.6525C19.2598 18.81 19.1698 18.9675 19.1248 19.125C19.1023 19.215 19.0798 19.305 19.0123 19.35C18.9673 19.4175 18.8998 19.44 18.8098 19.44H17.3923C17.3023 19.44 17.2348 19.4175 17.1673 19.35C17.0998 19.305 17.0773 19.215 17.0773 19.125C17.0773 18.8775 17.1223 18.63 17.2348 18.4275C17.3473 18.225 17.4598 18.045 17.6173 17.865C17.7748 17.73 17.9548 17.5725 18.1348 17.4375C18.3148 17.3025 18.4948 17.1675 18.6523 17.0325C18.8098 16.8975 18.9448 16.785 19.0348 16.65C19.1473 16.4925 19.1923 16.3575 19.1923 16.2C19.1923 15.975 19.1023 15.795 18.9448 15.66C18.7648 15.5475 18.4948 15.48 18.1348 15.48C17.7748 15.48 17.5273 15.525 17.3923 15.6375C17.2348 15.75 17.1223 15.8625 17.0548 15.975C16.9873 16.11 16.9198 16.2225 16.8748 16.335C16.8298 16.425 16.7173 16.4925 16.5823 16.4925H15.1423C15.0748 16.4925 15.0073 16.47 14.9623 16.425C14.9173 16.3575 14.8948 16.3125 14.8948 16.2225C14.8948 15.9525 14.9848 15.66 15.1198 15.3675C15.2773 15.075 15.4798 14.7825 15.7498 14.535C16.0198 14.2875 16.3573 14.0625 16.7623 13.905C17.1673 13.7475 17.6173 13.6575 18.1348 13.6575C18.5623 13.6575 18.9898 13.725 19.3723 13.8375C19.7548 13.95 20.0923 14.13 20.3848 14.3325C20.6773 14.5575 20.9023 14.805 21.0598 15.0975C21.2173 15.39 21.3073 15.705 21.3073 16.065C21.2848 16.3575 21.2398 16.605 21.1498 16.8075Z" fill="white"/>
</svg>
