<svg width="48" height="48" viewBox="0 0 48 48" fill="none" xmlns="http://www.w3.org/2000/svg">
<path d="M24 48C37.2548 48 48 37.2548 48 24C48 10.7452 37.2548 0 24 0C10.7452 0 0 10.7452 0 24C0 37.2548 10.7452 48 24 48Z" fill="#EEFAF9"/>
<path d="M33.7501 14.88C30.3301 14.88 27.0001 13.92 24.0001 12C21.0601 13.92 17.5201 14.88 14.1001 14.88V26.16C14.1001 31.41 22.1101 36 24.0001 36C25.8901 36 33.9001 31.41 33.9001 26.19V14.88H33.7501ZM29.6401 21.36L24.1201 27.78C24.0601 27.81 24.0001 27.84 23.9401 27.87C23.8801 27.87 23.8201 27.84 23.7601 27.81L20.0101 24.24C19.9801 24.21 19.9501 24.12 19.9501 24.06C19.9501 24 19.9801 23.94 20.0101 23.88L21.2101 22.62C21.2701 22.56 21.3301 22.53 21.3901 22.53C21.4501 22.53 21.5101 22.56 21.5701 22.59L23.6101 24.54C23.6401 24.6 23.7301 24.63 23.7901 24.63C23.8501 24.63 23.9101 24.6 23.9701 24.54L27.9601 19.89C27.9901 19.83 28.0501 19.8 28.1101 19.8C28.1701 19.8 28.2301 19.83 28.2901 19.86L29.6101 21C29.6701 21.03 29.7001 21.09 29.7001 21.18C29.7001 21.24 29.7001 21.3 29.6401 21.36Z" fill="#5FCCC8"/>
</svg>
