<svg width="36" height="36" viewBox="0 0 36 36" fill="none" xmlns="http://www.w3.org/2000/svg">
<path d="M18 36C27.9411 36 36 27.9411 36 18C36 8.05887 27.9411 0 18 0C8.05887 0 0 8.05887 0 18C0 27.9411 8.05887 36 18 36Z" fill="#5FCCC8"/>
<path d="M18 9C13.0275 9 9 13.0275 9 18C9 22.9725 13.0275 27 18 27C22.9725 27 27 22.9725 27 18C27 13.0275 22.9725 9 18 9ZM20.4525 21.87C19.35 23.7825 18.1575 24.75 16.8975 24.75C16.4025 24.75 15.9975 24.5925 15.6825 24.3225C15.3675 24.03 15.2325 23.67 15.2325 23.22C15.2325 22.95 15.3 22.59 15.435 22.1625L16.0875 19.9125C16.0875 19.9125 16.0875 19.9125 16.0875 19.89L16.3125 19.1475L16.7625 17.595C16.875 17.1 16.8975 16.875 16.8975 16.785C16.8975 16.7625 16.875 16.7175 16.8525 16.695C16.83 16.6725 16.8075 16.65 16.785 16.65C16.695 16.65 16.605 16.695 16.515 16.7625C16.2 17.01 15.8625 17.28 15.4125 18.0225C15.4125 18.0225 15.4125 18.045 15.39 18.045C15.39 18.045 15.3675 18.0675 15.3675 18.09C15.345 18.135 15.3225 18.135 15.3 18.1575C15.2775 18.2025 15.2325 18.225 15.1875 18.2475C15.165 18.27 15.1425 18.27 15.12 18.2925C15.0975 18.2925 15.075 18.2925 15.0525 18.2925H15.03H15.0075H14.985C14.985 18.2925 14.9625 18.2925 14.94 18.27H14.9175C14.895 18.27 14.8725 18.2475 14.8725 18.2475C14.6475 18.045 14.76 17.775 14.76 17.775C15.8625 15.8625 17.055 14.895 18.315 14.895C18.81 14.895 19.215 15.03 19.53 15.3225C19.845 15.615 19.98 15.975 19.98 16.425C19.98 16.695 19.9125 17.055 19.7775 17.4825L19.3725 18.99C19.3725 18.99 19.3725 18.99 19.3725 19.0125L19.125 19.755L18.4725 22.0275C18.3375 22.545 18.315 22.7475 18.315 22.8375C18.315 22.86 18.3375 22.905 18.36 22.9275C18.3825 22.95 18.405 22.9725 18.4275 22.9725C18.5175 22.9725 18.6075 22.9275 18.6975 22.86C19.0125 22.6125 19.35 22.365 19.8 21.6225C19.8 21.6225 19.8 21.6 19.8225 21.6C19.8225 21.5775 19.845 21.5775 19.845 21.555C19.8675 21.5325 19.8675 21.5325 19.89 21.51C19.9575 21.4425 19.98 21.42 20.025 21.375C20.0475 21.375 20.07 21.3525 20.0925 21.3525C20.115 21.3525 20.1375 21.3525 20.16 21.3525H20.1825H20.205H20.2275H20.25H20.2725C20.295 21.3525 20.3175 21.375 20.3175 21.375C20.5875 21.6 20.4525 21.87 20.4525 21.87ZM19.1475 14.4C18.18 14.4 17.3925 13.6125 17.3925 12.645C17.3925 11.6775 18.18 10.89 19.1475 10.89C20.115 10.89 20.9025 11.6775 20.9025 12.645C20.9025 13.6125 20.115 14.4 19.1475 14.4Z" fill="white"/>
</svg>
