<svg width="90" height="90" viewBox="0 0 90 90" fill="none" xmlns="http://www.w3.org/2000/svg">
<path d="M45 90C69.8528 90 90 69.8528 90 45C90 20.1472 69.8528 0 45 0C20.1472 0 0 20.1472 0 45C0 69.8528 20.1472 90 45 90Z" fill="#F6CEB4"/>
<path fill-rule="evenodd" clip-rule="evenodd" d="M36 69.1875V60.75H42.75V69.1875H56.8125V29.8125L21.9375 19.125V69.75L36 69.1875ZM43.875 57.9375V54.5625H47.8125V57.9375H43.875V57.9375ZM50.0625 57.9375V54.5625H54V57.9375H50.0625V57.9375ZM35.4375 57.9375H30.9375V54.5625H35.4375V57.9375ZM37.6875 57.9375V54.5625H41.625V57.9375H37.6875V57.9375ZM28.6875 57.9375H24.75V54.5625H28.6875V57.9375V57.9375ZM47.8125 52.3125H43.875V48.9375H47.8125V52.3125ZM50.0625 52.3125V48.9375H54V52.3125H50.0625V52.3125ZM37.6875 52.3125V48.9375H41.625V52.3125H37.6875V52.3125ZM30.9375 52.3125V48.9375H35.4375V52.3125H30.9375V52.3125ZM28.6875 52.3125H24.75V48.9375H28.6875V52.3125V52.3125ZM47.8125 47.25H43.875V43.3125H47.8125V47.25ZM50.0625 47.25V43.3125H54V46.6875H50.0625V47.25ZM37.6875 47.25V43.3125H41.625V46.6875H37.6875V47.25ZM35.4375 47.25H30.9375V43.3125H35.4375V47.25ZM28.6875 47.25H24.75V43.3125H28.6875V47.25V47.25ZM50.0625 41.625V37.6875H54V41.0625H50.0625V41.625ZM43.875 41.625V37.6875H47.8125V41.0625H43.875V41.625ZM37.6875 41.625V37.6875H41.625V41.0625H37.6875V41.625ZM35.4375 41.625H30.9375V37.6875H35.4375V41.625ZM28.6875 41.625H24.75V37.6875H28.6875V41.625V41.625ZM50.0625 36V32.625H54V36H50.0625V36ZM43.875 36V32.625H47.8125V36H43.875V36ZM41.625 36H37.6875V32.625H41.625V36ZM35.4375 36H30.9375V32.625H35.4375V36ZM28.6875 36H24.75V32.625H28.6875V36V36Z" fill="white"/>
<path fill-rule="evenodd" clip-rule="evenodd" d="M56.8125 39.9375V69.75H70.875V39.9375H56.8125ZM69.1875 62.4375H59.0625V60.1875H69.1875V62.4375ZM69.1875 56.8125H59.0625V54.5625H69.1875V56.8125ZM69.1875 50.625H59.0625V48.375H69.1875V50.625ZM69.1875 45H59.0625V42.75H69.1875V45Z" fill="white"/>
</svg>
