<svg width="36" height="36" viewBox="0 0 36 36" fill="none" xmlns="http://www.w3.org/2000/svg">
<path d="M18 36C27.9411 36 36 27.9411 36 18C36 8.05887 27.9411 0 18 0C8.05887 0 0 8.05887 0 18C0 27.9411 8.05887 36 18 36Z" fill="#F6CEB4"/>
<path d="M14.76 14.7375L13.545 15.255C13.77 14.3775 14.22 13.59 14.8725 12.9825C14.7375 13.4775 14.6925 14.085 14.76 14.7375ZM14.85 15.3675L13.41 15.975C13.365 16.6275 13.455 17.2575 13.6575 17.865L15.345 17.145C15.12 16.56 14.94 15.9525 14.85 15.3675ZM15.5925 17.73L13.905 18.4275C14.1975 19.0125 14.6025 19.5075 15.0975 19.9125L16.515 19.305C16.1775 18.8325 15.8625 18.315 15.5925 17.73ZM16.65 13.95L15.9525 12.285C15.345 12.825 15.3225 14.0175 15.3675 14.49L16.65 13.95ZM15.435 15.12C15.525 15.705 15.6825 16.3125 15.93 16.92L17.595 16.2L16.875 14.5125L15.435 15.12ZM16.92 19.8225L15.6825 20.34C16.47 20.8125 17.37 21.015 18.2475 20.9475C17.7075 20.655 17.235 20.1825 16.92 19.8225ZM18.495 13.1625C18 12.6225 17.235 11.9925 16.515 12.06L17.2125 13.7025L18.495 13.1625ZM18.5625 18.45L17.8425 16.7625L16.155 17.4825C16.425 18.0675 16.74 18.6075 17.1 19.08L18.5625 18.45ZM17.505 19.575C18 20.0925 18.7875 20.7225 19.485 20.6775L18.7875 19.0125L17.505 19.575ZM19.845 15.2325C19.575 14.6475 19.26 14.1075 18.9 13.6575L17.4375 14.265L18.1575 15.9525L19.845 15.2325ZM19.08 12.8925L20.3175 12.375C19.5525 11.925 18.6525 11.7 17.7525 11.7675C18.315 12.0825 18.765 12.5325 19.08 12.8925ZM20.5875 17.595C20.4975 17.01 20.34 16.4025 20.0925 15.795L18.405 16.515L19.125 18.225L20.5875 17.595ZM19.3725 18.7875L20.07 20.43C20.6775 19.9125 20.6775 18.72 20.655 18.2475L19.3725 18.7875ZM20.4075 15.0075L22.095 14.2875C21.8025 13.7025 21.42 13.2075 20.9025 12.8025L19.485 13.41C19.845 13.8825 20.16 14.4225 20.4075 15.0075ZM21.1275 19.7325C21.78 19.125 22.2525 18.3375 22.455 17.46L21.24 17.9775C21.3075 18.63 21.2625 19.2375 21.1275 19.7325ZM20.655 15.57C20.88 16.1775 21.06 16.7625 21.15 17.3475L22.5675 16.74C22.6125 16.0875 22.545 15.4575 22.32 14.85L20.655 15.57ZM27 12.06V20.6775C27 21.7575 26.1225 22.635 25.0425 22.635H22.455L23.67 25.92L17.64 22.635H10.9575C9.8775 22.635 9 21.735 9 20.6775V12.06C9 10.98 9.8775 10.1025 10.9575 10.1025H25.0425C26.1225 10.1025 27 10.98 27 12.06ZM22.7925 14.3325C21.9825 12.3975 20.0925 11.16 18 11.16C17.325 11.16 16.65 11.295 15.9975 11.565C14.7375 12.06 13.725 13.095 13.185 14.3775C12.645 15.66 12.645 17.1 13.2075 18.405C14.0175 20.34 15.9075 21.5775 18.0225 21.5775C19.44 21.5775 20.7675 21.015 21.7575 19.98C23.1975 18.4725 23.625 16.245 22.7925 14.3325Z" fill="white"/>
</svg>
