<svg width="36" height="36" viewBox="0 0 36 36" fill="none" xmlns="http://www.w3.org/2000/svg">
<path d="M18 36C27.9411 36 36 27.9411 36 18C36 8.05887 27.9411 0 18 0C8.05887 0 0 8.05887 0 18C0 27.9411 8.05887 36 18 36Z" fill="#5FCCC8"/>
<path d="M22.59 11.115L21.375 9H19.665L20.1375 11.115H22.59Z" fill="white"/>
<path d="M19.1476 11.115L18.6751 9H17.2801L16.8301 11.115H19.1476Z" fill="white"/>
<path d="M18 15.4575L19.1025 12.0825H16.8975L18 15.4575Z" fill="white"/>
<path d="M16.2902 9H14.6252L13.4102 11.115H15.8402L16.2902 9Z" fill="white"/>
<path d="M16.0875 12.6675L15.885 12.0825H13.6125L14.715 13.185C12.3525 14.4 10.6875 16.8525 10.6875 19.6875C10.6875 23.715 13.9725 27 18 27C22.0275 27 25.3125 23.715 25.3125 19.6875C25.3125 16.83 23.6475 14.4 21.285 13.185L22.3875 12.0825H20.115L19.9125 12.6675L19.44 14.1525L19.0125 15.4575L20.0925 14.3775C22.23 15.21 23.7375 17.28 23.7375 19.71C23.7375 22.8825 21.1725 25.4475 18 25.4475C14.8275 25.4475 12.2625 22.8825 12.2625 19.71C12.2625 17.28 13.77 15.21 15.9075 14.3775L16.9875 15.4575L16.56 14.1525L16.0875 12.6675Z" fill="white"/>
</svg>
