<svg width="48" height="49" viewBox="0 0 48 49" fill="none" xmlns="http://www.w3.org/2000/svg">
<g clip-path="url(#clip0_1495_8299)">
<path d="M24 48.2031C37.2548 48.2031 48 37.4579 48 24.2031C48 10.9482 37.2548 0.203064 24 0.203064C10.7452 0.203064 0 10.9482 0 24.2031C0 37.4579 10.7452 48.2031 24 48.2031Z" fill="#EEFAF9"/>
<path fill-rule="evenodd" clip-rule="evenodd" d="M31.23 31.223C31.53 26.933 34.92 25.463 34.59 20.663C34.29 16.583 31.59 13.403 27.99 12.593C23.34 11.513 18.42 12.683 16.62 15.953C16.29 16.553 16.05 17.393 15.81 18.203C15.6 18.893 15.15 19.793 15.21 20.603C15.21 21.203 15.6 21.383 15.57 22.043C15.54 22.673 14.85 23.273 14.46 23.903C14.13 24.413 13.32 25.073 13.41 25.823C13.5 26.573 14.31 26.573 14.91 26.933C14.73 27.653 14.55 28.463 15.27 28.673C14.64 29.393 15.48 29.633 15.51 30.233C15.57 30.893 15.18 31.133 15.39 31.853C15.51 32.333 15.87 32.663 16.2 32.843C17.4 33.503 19.98 32.693 20.49 33.953C20.79 34.703 20.73 35.513 20.73 36.203C24.54 36.203 28.35 36.203 32.16 36.203C32.16 36.173 32.16 36.173 32.16 36.143C31.29 34.493 31.11 32.903 31.23 31.223ZM26.52 23.573C25.29 23.003 22.17 20.813 22.17 18.923C22.17 17.573 23.25 16.493 24.6 16.493C25.35 16.493 26.04 16.853 26.49 17.393C26.94 16.853 27.6 16.493 28.38 16.493C29.73 16.493 30.81 17.573 30.81 18.923C30.84 20.723 27.81 22.853 26.52 23.573Z" fill="#5FCCC8"/>
</g>
<defs>
<clipPath id="clip0_1495_8299">
<rect width="48" height="48" fill="white" transform="translate(0 0.203064)"/>
</clipPath>
</defs>
</svg>
