<svg width="36" height="36" viewBox="0 0 36 36" fill="none" xmlns="http://www.w3.org/2000/svg">
<path d="M18 36C27.9411 36 36 27.9411 36 18C36 8.05887 27.9411 0 18 0C8.05887 0 0 8.05887 0 18C0 27.9411 8.05887 36 18 36Z" fill="#F6CEB4"/>
<path d="M13.4326 11.07C17.6401 8.90999 19.3726 13.5225 24.5026 11.5425L22.8601 15.3225C22.8601 15.3225 24.0076 17.5725 25.8751 18.585C21.6451 21.3975 19.3501 17.2125 15.7051 19.26L13.4326 11.07Z" fill="white"/>
<path d="M16.3575 26.2575L12.0825 10.9125C12.285 10.71 12.3975 10.44 12.3975 10.125C12.3975 9.5175 11.9025 9 11.2725 9C10.6425 9 10.125 9.5175 10.125 10.1475C10.125 10.665 10.485 11.0925 10.9575 11.2275L15.2325 26.5725C15.3225 26.82 15.5475 27 15.795 27C15.84 27 15.9075 27 15.9525 26.9775C16.2675 26.8875 16.4475 26.5725 16.3575 26.2575Z" fill="white"/>
</svg>
