<svg width="30" height="29" viewBox="0 0 30 29" fill="none" xmlns="http://www.w3.org/2000/svg">
<path d="M19 3.25H10C6.0625 3.25 4.375 5.5 4.375 8.875V20.125C4.375 23.5 6.0625 25.75 10 25.75H19C22.9375 25.75 24.625 23.5 24.625 20.125V8.875C24.625 5.5 22.9375 3.25 19 3.25ZM10 14.7812H14.5C14.9613 14.7812 15.3438 15.1637 15.3438 15.625C15.3438 16.0863 14.9613 16.4688 14.5 16.4688H10C9.53875 16.4688 9.15625 16.0863 9.15625 15.625C9.15625 15.1637 9.53875 14.7812 10 14.7812ZM19 20.9688H10C9.53875 20.9688 9.15625 20.5863 9.15625 20.125C9.15625 19.6637 9.53875 19.2812 10 19.2812H19C19.4613 19.2812 19.8438 19.6637 19.8438 20.125C19.8438 20.5863 19.4613 20.9688 19 20.9688ZM21.8125 11.4062H19.5625C17.8525 11.4062 16.4688 10.0225 16.4688 8.3125V6.0625C16.4688 5.60125 16.8512 5.21875 17.3125 5.21875C17.7738 5.21875 18.1562 5.60125 18.1562 6.0625V8.3125C18.1562 9.08875 18.7863 9.71875 19.5625 9.71875H21.8125C22.2738 9.71875 22.6562 10.1013 22.6562 10.5625C22.6562 11.0237 22.2738 11.4062 21.8125 11.4062Z" fill="white"/>
</svg>
