<svg width="48" height="48" viewBox="0 0 48 48" fill="none" xmlns="http://www.w3.org/2000/svg">
<path d="M24 48C37.2548 48 48 37.2548 48 24C48 10.7452 37.2548 0 24 0C10.7452 0 0 10.7452 0 24C0 37.2548 10.7452 48 24 48Z" fill="#EEFAF9"/>
<path fill-rule="evenodd" clip-rule="evenodd" d="M25.23 16.59C25.26 16.83 25.38 16.92 25.62 16.89C28.41 16.56 28.02 13.65 27.75 12.21C27.72 11.97 27.54 11.97 27.45 12.06C26.34 12.78 25.02 14.55 25.23 16.59Z" fill="#5FCCC8"/>
<path fill-rule="evenodd" clip-rule="evenodd" d="M21.4799 35.88C23.5199 35.31 24.5099 35.31 26.5499 35.88C29.6399 36.72 31.9799 32.61 33.0299 30.21C35.1599 25.44 33.8099 20.04 30.3599 18.84C28.4699 18.18 27.2999 18.87 25.8899 19.38C24.5399 19.86 23.4899 19.89 22.1399 19.38C20.6999 18.87 19.5299 18.18 17.6399 18.84C14.1899 20.04 12.8399 25.44 14.9699 30.21C16.0499 32.61 18.3599 36.75 21.4799 35.88Z" fill="#5FCCC8"/>
<path fill-rule="evenodd" clip-rule="evenodd" d="M24.39 18.63C24.27 16.23 22.92 13.23 20.61 12.27C19.89 11.97 19.35 13.44 20.04 13.71C22.29 14.61 23.28 16.23 23.4 18.6C23.61 18.63 23.82 18.63 24 18.63C24.12 18.63 24.24 18.63 24.39 18.63Z" fill="#5FCCC8"/>
</svg>
