<svg width="48" height="48" viewBox="0 0 48 48" fill="none" xmlns="http://www.w3.org/2000/svg">
<path d="M24 48C37.2548 48 48 37.2548 48 24C48 10.7452 37.2548 0 24 0C10.7452 0 0 10.7452 0 24C0 37.2548 10.7452 48 24 48Z" fill="#EEFAF9"/>
<path d="M12.66 26.37V17.52C12.66 17.25 12.54 16.98 12.33 16.77C12.12 16.53 11.88 16.41 11.58 16.41C11.28 16.41 11.04 16.53 10.83 16.74C10.62 16.98 10.5 17.22 10.5 17.52V31.59H12.66V28.53H35.34V31.59H37.5V26.37H12.66Z" fill="#5FCCC8"/>
<path d="M16.1701 23.16C16.2001 23.16 16.2001 23.16 16.2301 23.16H16.2601H16.2901H16.3201C16.3201 23.16 16.3201 23.16 16.3501 23.16H16.3801C16.3801 23.16 16.3801 23.16 16.4101 23.16H16.4401H16.4701C16.4701 23.16 16.4701 23.16 16.5001 23.16C16.5301 23.16 16.5301 23.16 16.5601 23.16C16.5901 23.16 16.5901 23.16 16.6201 23.16C16.6201 23.16 16.6201 23.16 16.6501 23.16H16.6801H16.7101C16.7101 23.16 16.7101 23.16 16.7401 23.16H16.7701C16.7701 23.16 16.7701 23.16 16.8001 23.16H16.8301H16.8601H16.8901H16.9201C17.3401 23.07 17.6701 22.89 18.0001 22.59C18.3901 22.2 18.6001 21.75 18.6001 21.18C18.6001 20.67 18.3901 20.19 18.0001 19.8C17.5801 19.41 17.1001 19.23 16.5601 19.23C16.0201 19.23 15.5401 19.41 15.1501 19.8C14.7901 20.19 14.5801 20.67 14.5801 21.21C14.5801 21.75 14.7601 22.23 15.1501 22.62C15.4501 22.89 15.8101 23.07 16.1701 23.16Z" fill="#5FCCC8"/>
<path d="M14.9399 25.2H37.4699V22.59C37.4699 22.17 37.3199 21.84 37.0199 21.57C36.7199 21.3 36.3299 21.15 35.8799 21.06L20.1899 19.53H20.0999C19.8299 19.53 19.5899 19.62 19.3799 19.83C19.1999 20.01 19.0799 20.25 19.0799 20.55V23.25C18.9899 22.98 17.2199 23.67 16.5599 23.67C15.8999 23.67 15.2999 23.43 14.8199 22.95C14.7599 22.86 14.6699 22.77 14.6099 22.68C14.1899 22.83 13.8899 23.22 13.8899 23.67V24.15C13.8899 24.75 14.3399 25.2 14.9399 25.2Z" fill="#5FCCC8"/>
</svg>
