<svg width="36" height="36" viewBox="0 0 36 36" fill="none" xmlns="http://www.w3.org/2000/svg">
<path d="M18 36C27.9411 36 36 27.9411 36 18C36 8.05887 27.9411 0 18 0C8.05887 0 0 8.05887 0 18C0 27.9411 8.05887 36 18 36Z" fill="#F6CEB4"/>
<path d="M26.9102 17.91C26.9102 17.8425 26.9777 16.515 26.7302 15.4125C26.6177 14.8725 26.3252 14.355 25.8527 13.8825C25.4252 13.455 24.9077 13.1175 24.3677 12.9375C23.8727 12.78 23.2877 12.735 22.8152 12.7575C22.9727 12.3525 23.1077 11.8125 23.1077 11.25C23.1077 10.5975 22.7927 9.98997 22.2302 9.51747C21.7127 9.08997 21.0602 8.84247 20.4077 8.84247V9.78747C20.8352 9.78747 21.2852 9.94497 21.6227 10.2375C21.8252 10.395 22.1627 10.755 22.1627 11.2275C22.1627 12.15 21.6452 13.005 21.6452 13.0275L21.1277 13.8825L22.1177 13.7475C22.4552 13.7025 23.4452 13.6125 24.0752 13.8375C24.9077 14.13 25.6727 14.9175 25.8302 15.615C26.0327 16.5825 25.9877 17.865 25.9877 17.865L26.9102 17.91Z" fill="#FFFDFF"/>
<path d="M25.3576 17.8875V17.1225C25.3576 16.335 25.0876 15.66 24.5926 15.21C24.2551 14.9175 23.6476 14.58 22.6576 14.715H22.6351H22.6126C22.6126 14.715 21.6226 14.9625 20.7451 14.6925C20.2501 14.6025 20.0026 14.175 19.8901 13.9275C19.7326 13.5225 19.6876 13.05 19.8226 12.645L20.0026 12.015L18.9676 12.0375C18.1576 12.0375 17.5051 11.385 17.5051 10.575C17.5051 9.76498 18.1576 9.11248 18.9676 9.11248V8.16748C17.6401 8.16748 16.5601 9.24748 16.5601 10.575C16.5601 11.8575 17.5501 12.8925 18.8101 12.9825C18.7876 13.4325 18.8551 13.8825 19.0351 14.2875C19.3276 14.9625 19.8226 15.435 20.4301 15.615C21.4876 15.93 22.5676 15.705 22.7701 15.66C23.2651 15.5925 23.6701 15.6825 23.9401 15.93C24.2326 16.1775 24.3901 16.605 24.3901 17.1225V17.8875H25.3576Z" fill="#FFFDFF"/>
<path d="M25.4025 18.9449H9V21.8249H25.4025V18.9449Z" fill="#FFFDFF"/>
<path d="M27.0002 18.9449H26.0552V21.8924H27.0002V18.9449Z" fill="#FFFDFF"/>
</svg>
