<svg width="36" height="36" viewBox="0 0 36 36" fill="none" xmlns="http://www.w3.org/2000/svg">
<path d="M18 36C27.9411 36 36 27.9411 36 18C36 8.05887 27.9411 0 18 0C8.05887 0 0 8.05887 0 18C0 27.9411 8.05887 36 18 36Z" fill="#F6CEB4"/>
<path d="M21.8249 19.3504C22.0499 18.9004 22.9499 18.6754 22.9499 18.0004C22.9499 17.3254 22.0499 17.1004 21.8249 16.6504C21.8249 16.2004 22.2749 15.5254 22.0499 15.0754C21.8249 14.6254 20.6999 15.0754 20.4749 14.6254C20.0249 14.4004 20.0249 13.5004 19.5749 13.2754C19.1249 13.0504 18.4499 13.9504 17.9999 13.9504C17.5499 13.9504 16.8749 13.0504 16.4249 13.2754C15.9749 13.5004 15.9749 14.4004 15.7499 14.6254C15.2999 14.8504 14.3999 14.6254 14.1749 15.0754C13.7249 15.5254 14.3999 16.2004 14.1749 16.6504C13.9499 17.1004 13.0499 17.5504 13.0499 18.0004C13.0499 18.4504 13.9499 18.9004 14.1749 19.3504C14.3999 19.8004 13.7249 20.7004 13.9499 20.9254C14.1749 21.3754 15.2999 20.9254 15.5249 21.3754C15.9749 21.6004 15.9749 22.7254 16.4249 22.9504C16.8749 22.9504 17.5499 22.0504 17.9999 22.0504C18.4499 22.0504 19.1249 22.9504 19.5749 22.7254C20.0249 22.5004 20.0249 21.6004 20.4749 21.3754C20.9249 21.1504 21.8249 21.3754 22.0499 20.9254C22.2749 20.4754 21.8249 19.8004 21.8249 19.3504ZM19.7999 17.3254L17.9999 19.3504C17.9999 19.3504 17.7749 19.5754 17.5499 19.5754C17.3249 19.5754 17.3249 19.5754 17.0999 19.3504L15.9749 18.2254C15.9749 18.0004 15.9749 17.7754 15.9749 17.5504C16.1999 17.3254 16.4249 17.3254 16.6499 17.5504L17.3249 18.2254L18.8999 16.6504C19.1249 16.4254 19.3499 16.4254 19.5749 16.6504C20.0249 16.8754 20.0249 17.3254 19.7999 17.3254Z" fill="white"/>
<path d="M17.5499 10.1251V12.1501C17.5499 12.3751 17.7749 12.6001 17.9999 12.6001C18.2249 12.6001 18.4499 12.3751 18.4499 12.1501V10.1251C18.8999 10.1251 19.3499 9.45005 19.3499 9.00005C19.3499 8.32505 18.6749 7.65005 17.9999 7.65005C17.3249 7.42505 16.6499 8.10005 16.6499 9.00005C16.6499 9.45005 17.0999 10.1251 17.5499 10.1251Z" fill="white"/>
<path d="M13.05 11.9249L14.4 13.4999L14.625 13.7249H14.85C15.075 13.4999 15.075 13.2749 14.85 13.2749L13.725 11.4749C14.175 11.0249 14.175 10.3499 13.725 9.89994C13.275 9.22494 12.375 8.99994 11.925 9.44994C11.25 9.89994 11.025 10.7999 11.475 11.4749C11.925 11.9249 12.6 12.1499 13.05 11.9249Z" fill="white"/>
<path d="M9 16.425C9.675 16.65 10.35 16.425 10.575 15.975L12.6 16.65C12.825 16.65 12.825 16.65 13.05 16.425C13.05 16.2 13.05 15.975 12.825 15.975L10.8 15.3C10.8 14.625 10.35 14.175 9.9 13.95C9 13.5 8.325 13.95 8.1 14.85C7.65 15.525 8.1 16.2 9 16.425Z" fill="white"/>
<path d="M18.4499 25.8754V23.8504C18.4499 23.6254 18.2249 23.4004 17.9999 23.4004C17.7749 23.4004 17.5499 23.6254 17.5499 23.8504V25.8754C16.8749 26.1004 16.4249 26.5504 16.4249 27.2254C16.4249 27.9004 17.0999 28.5754 17.7749 28.5754C18.4499 28.5754 19.1249 27.9004 19.1249 27.2254C19.3499 26.5504 18.8999 25.8754 18.4499 25.8754Z" fill="white"/>
<path d="M22.95 24.0748L21.6 22.4998C21.375 22.2748 21.15 22.2748 21.15 22.4998C20.925 22.7248 20.925 22.9498 21.15 22.9498L22.275 24.5248C21.825 24.9748 21.825 25.6498 22.275 26.0998C22.725 26.7748 23.625 26.7748 24.3 26.3248C24.975 25.8748 24.975 24.9748 24.525 24.2998C24.075 24.0748 23.4 23.8498 22.95 24.0748Z" fill="white"/>
<path d="M27.2249 19.5746C26.5499 19.3496 25.8749 19.5746 25.6499 20.0246L23.6249 19.3496C23.3999 19.3496 23.1749 19.3496 23.1749 19.5746C23.1749 19.7996 23.1749 20.0246 23.3999 20.0246L25.4249 20.6996C25.4249 21.3746 25.8749 21.8246 26.3249 22.0496C26.9999 22.2746 27.8999 21.8246 28.1249 21.1496C28.3499 20.4746 27.8999 19.7996 27.2249 19.5746Z" fill="white"/>
<path d="M12.6 20.0246C12.825 20.0246 12.825 19.7996 12.825 19.5746C12.825 19.3496 12.6 19.3496 12.375 19.3496L10.575 20.0246C10.125 19.5746 9.44996 19.3496 8.77496 19.5746C8.09996 19.7996 7.64996 20.4746 8.09996 21.1496C8.32496 22.0496 8.99996 22.2746 9.67496 22.0496C10.35 21.8246 10.575 21.3746 10.575 20.6996L12.6 20.0246Z" fill="white"/>
<path d="M14.4 22.5003L13.275 24.0753C12.6 23.8503 11.925 24.0753 11.7 24.5253C11.25 25.2003 11.475 26.1003 11.925 26.5503C12.6 27.0003 13.5 26.7753 13.95 26.3253C14.4 25.8753 14.175 25.2003 13.95 24.7503L15.075 23.1753C15.3 22.9503 15.075 22.7253 15.075 22.7253C14.625 22.2753 14.4 22.2753 14.4 22.5003Z" fill="white"/>
<path d="M23.3999 15.9755C23.1749 15.9755 23.1749 16.2005 23.1749 16.4255C23.1749 16.6505 23.3999 16.6505 23.6249 16.6505L25.6499 15.9755C25.8749 16.4255 26.5499 16.6505 27.2249 16.4255C27.8999 16.2005 28.3499 15.3005 28.1249 14.6255C27.8999 13.9505 26.9999 13.5005 26.3249 13.7255C25.6499 13.9505 25.4249 14.4005 25.4249 15.0755L23.3999 15.9755Z" fill="white"/>
<path d="M21.375 13.7254C21.375 13.7254 21.6 13.7254 21.6 13.5004L22.725 11.9254C23.4 12.1504 24.075 11.9254 24.3 11.4754C24.75 10.8004 24.525 9.90037 24.075 9.45037C23.625 9.00037 22.725 9.22537 22.275 9.67537C21.825 10.1254 22.05 10.8004 22.275 11.2504L21.15 13.0504C20.925 13.2754 20.925 13.5004 21.375 13.7254C21.375 13.7254 21.15 13.7254 21.375 13.7254Z" fill="white"/>
</svg>
