<svg width="18" height="19" viewBox="0 0 18 19" fill="none" xmlns="http://www.w3.org/2000/svg">
<circle cx="9" cy="9.16797" r="9" fill="#E8E4FF"/>
<path d="M9.00004 13.6472C6.52921 13.6472 4.52087 11.6388 4.52087 9.16801C4.52087 6.69718 6.52921 4.68884 9.00004 4.68884C11.4709 4.68884 13.4792 6.69718 13.4792 9.16801C13.4792 11.6388 11.4709 13.6472 9.00004 13.6472ZM9.00004 5.31384C6.87504 5.31384 5.14587 7.04301 5.14587 9.16801C5.14587 11.293 6.87504 13.0222 9.00004 13.0222C11.125 13.0222 12.8542 11.293 12.8542 9.16801C12.8542 7.04301 11.125 5.31384 9.00004 5.31384Z" fill="#3E4543"/>
<path d="M10.5458 10.8055C10.4916 10.8055 10.4375 10.793 10.3875 10.7596L9.09581 9.98879C8.77498 9.79712 8.53748 9.37629 8.53748 9.00545V7.29712C8.53748 7.12629 8.67914 6.98462 8.84998 6.98462C9.02081 6.98462 9.16248 7.12629 9.16248 7.29712V9.00545C9.16248 9.15545 9.28748 9.37629 9.41664 9.45129L10.7083 10.2221C10.8583 10.3096 10.9041 10.5013 10.8166 10.6513C10.7541 10.7513 10.65 10.8055 10.5458 10.8055Z" fill="#3E4543"/>
</svg>
