<svg width="18" height="18" viewBox="0 0 18 18" fill="none" xmlns="http://www.w3.org/2000/svg">
<path fill-rule="evenodd" clip-rule="evenodd" d="M9 0C4.0275 0 0 4.0275 0 9C0 13.9725 4.0275 18 9 18C13.9725 18 18 13.9725 18 9C18 4.0275 13.9725 0 9 0ZM8.19 4.095V9C8.19 9.225 8.28 9.4275 8.4375 9.585L11.7 12.8475C12.015 13.1625 12.5325 13.1625 12.8475 12.8475C13.1625 12.5325 13.1625 12.015 12.8475 11.7L9.81 8.6625V4.095C9.81 3.645 9.45 3.285 9 3.285C8.55 3.2625 8.19 3.645 8.19 4.095Z" fill="white"/>
</svg>
