<svg width="36" height="36" viewBox="0 0 36 36" fill="none" xmlns="http://www.w3.org/2000/svg">
<path d="M18 36C27.9411 36 36 27.9411 36 18C36 8.05887 27.9411 0 18 0C8.05887 0 0 8.05887 0 18C0 27.9411 8.05887 36 18 36Z" fill="#F6CEB4"/>
<path fill-rule="evenodd" clip-rule="evenodd" d="M18 9C13.0275 9 9 13.0275 9 18C9 22.9725 13.0275 27 18 27C22.9725 27 27 22.9725 27 18C27 13.0275 22.9725 9 18 9ZM17.19 13.095V18C17.19 18.225 17.28 18.4275 17.4375 18.585L20.7 21.8475C21.015 22.1625 21.5325 22.1625 21.8475 21.8475C22.1625 21.5325 22.1625 21.015 21.8475 20.7L18.81 17.6625V13.095C18.81 12.645 18.45 12.285 18 12.285C17.55 12.2625 17.19 12.645 17.19 13.095Z" fill="#FFFFFD"/>
</svg>
