<svg width="18" height="18" viewBox="0 0 18 18" fill="none" xmlns="http://www.w3.org/2000/svg">
<path d="M9.51762 6.36755C9.23637 6.27755 8.76387 6.27755 8.48262 6.36755L4.71387 7.51505C4.43262 7.60505 4.43262 7.74005 4.71387 7.83005L8.48262 8.97755C8.76387 9.06755 9.23637 9.06755 9.51762 8.97755L13.2864 7.83005C13.5676 7.74005 13.5676 7.60505 13.2864 7.51505L9.51762 6.36755Z" fill="white"/>
<path d="M8.56138 9.64124L6.25513 8.9325V10.98C6.25513 10.98 6.80638 11.7 9.00013 11.7C11.1939 11.7 11.7451 10.98 11.7451 10.98V8.9325L9.43888 9.64124C9.15763 9.73124 8.84263 9.73124 8.56138 9.64124Z" fill="#3E4543"/>
<path d="M5.10761 9.95632V8.42632L4.80386 8.32507V9.95632L4.62386 10.2938C4.59011 10.3501 4.57886 10.4176 4.57886 10.4851V10.5076C4.57886 10.7213 4.74761 10.8901 4.96136 10.8901C5.17511 10.8901 5.34386 10.7213 5.34386 10.5076V10.4851C5.34386 10.4176 5.33261 10.3613 5.29886 10.3051L5.10761 9.95632Z" fill="white"/>
<path d="M9 18C13.9706 18 18 13.9706 18 9C18 4.02944 13.9706 0 9 0C4.02944 0 0 4.02944 0 9C0 13.9706 4.02944 18 9 18Z" fill="#5FCCC8"/>
<path fill-rule="evenodd" clip-rule="evenodd" d="M9 4.5C6.51375 4.5 4.5 6.51375 4.5 9C4.5 11.4863 6.51375 13.5 9 13.5C11.4863 13.5 13.5 11.4863 13.5 9C13.5 6.51375 11.4863 4.5 9 4.5ZM8.595 6.5475V9C8.595 9.1125 8.64 9.21375 8.71875 9.2925L10.35 10.9238C10.5075 11.0813 10.7663 11.0813 10.9238 10.9238C11.0813 10.7663 11.0813 10.5075 10.9238 10.35L9.405 8.83125V6.5475C9.405 6.3225 9.225 6.1425 9 6.1425C8.775 6.13125 8.595 6.3225 8.595 6.5475Z" fill="#FFFFFD"/>
</svg>
