<svg width="24" height="24" viewBox="0 0 24 24" fill="none" xmlns="http://www.w3.org/2000/svg">
<path d="M12 24C18.6274 24 24 18.6274 24 12C24 5.37258 18.6274 0 12 0C5.37258 0 0 5.37258 0 12C0 18.6274 5.37258 24 12 24Z" fill="#5FCCC8"/>
<path fill-rule="evenodd" clip-rule="evenodd" d="M11.5297 13.1554C10.8733 12.5537 10.3445 11.8426 9.90695 11.0951C9.43289 10.2564 9.88871 9.81878 10.3081 9.41766C10.5451 9.19886 10.7821 8.96183 11.0192 8.72481C11.3838 8.39662 11.3656 8.26899 10.9098 7.7767C10.144 6.97445 9.39643 6.15397 8.63065 5.3335C7.64607 5.64345 7.08085 5.86225 6.42447 6.86506C6.04158 7.50321 5.89572 7.81316 6.07805 8.68834C6.51564 10.9128 8.17483 12.9731 9.96165 14.7052C11.712 16.492 13.7541 18.1512 15.9785 18.5888C16.8537 18.7711 17.1819 18.6252 17.82 18.2424C18.8228 17.586 19.0416 17.0208 19.3333 16.0362C18.5129 15.2886 17.7106 14.5229 16.8901 13.7753C16.3978 13.3195 16.2702 13.3013 15.942 13.6477C15.705 13.8847 15.4862 14.1217 15.2492 14.3588C14.8481 14.7781 14.4105 15.2339 13.5718 14.7599C12.8424 14.3405 12.1314 13.7935 11.5297 13.1554Z" fill="white"/>
</svg>
