<svg width="36" height="36" viewBox="0 0 36 36" fill="none" xmlns="http://www.w3.org/2000/svg">
<path d="M18 36C27.9411 36 36 27.9411 36 18C36 8.05887 27.9411 0 18 0C8.05887 0 0 8.05887 0 18C0 27.9411 8.05887 36 18 36Z" fill="#5FCCC8"/>
<path d="M20.4522 11.115C20.4297 11.115 20.4297 11.0925 20.4072 11.0925C20.3622 11.0925 20.3172 11.115 20.2947 11.1375L19.8897 11.8125C19.8897 11.835 19.8672 11.8575 19.8672 11.88C19.8672 11.925 19.8897 11.9475 19.9347 11.9925C19.9797 12.015 20.0697 12.015 20.0922 11.9475L20.4972 11.2725C20.4972 11.25 20.5197 11.2275 20.5197 11.205C20.5197 11.1825 20.5197 11.1375 20.4972 11.1375C20.4747 11.115 20.4522 11.115 20.4522 11.115Z" fill="white"/>
<path d="M23.5124 9H12.4874C11.0699 9 9.92236 10.1475 9.92236 11.565V24.435C9.92236 25.8525 11.0699 27 12.4874 27H23.5124C24.9299 27 26.0774 25.8525 26.0774 24.435V11.565C26.0774 10.1475 24.9299 9 23.5124 9ZM19.7549 15.7275C19.7549 14.76 18.9674 13.9725 17.9999 13.9725C17.0324 13.9725 16.2449 14.76 16.2449 15.7275H12.7574C12.7574 15.6375 12.7574 15.525 12.7574 15.435C12.7574 15.4125 12.7574 15.4125 12.7574 15.39L12.7799 15.345C12.7799 15.255 12.8024 15.165 12.8024 15.075C12.8249 15.075 12.8474 15.0975 12.8699 15.0975H13.6574C13.7249 15.0975 13.7699 15.0525 13.7699 14.985C13.7699 14.9175 13.7249 14.8725 13.6574 14.8725H12.8924C12.8699 14.8725 12.8699 14.8725 12.8474 14.8725C12.9599 14.1975 13.2074 13.545 13.5674 12.9825C13.5674 12.9825 13.5674 12.9825 13.5674 12.96C13.5674 12.9375 13.5899 12.9375 13.5899 12.915C13.5899 12.915 13.5899 12.915 13.6124 12.8925C13.6349 12.87 13.6349 12.8475 13.6574 12.825C13.6574 12.8475 13.6799 12.8475 13.7024 12.87L14.3774 13.275C14.3999 13.275 14.4224 13.2975 14.4449 13.2975C14.4899 13.2975 14.5349 13.275 14.5574 13.23C14.5799 13.185 14.5799 13.095 14.5124 13.0725L13.8374 12.6675C13.8149 12.6675 13.8149 12.645 13.7924 12.645C14.2424 12.015 14.8499 11.4975 15.5474 11.115C15.5249 11.16 15.5249 11.205 15.5474 11.25L15.9524 11.9025C15.9749 11.9475 16.0199 11.9475 16.0649 11.9475C16.0874 11.9475 16.1099 11.9475 16.1324 11.925C16.1774 11.9025 16.1999 11.835 16.1549 11.7675L15.7499 11.115C15.7274 11.0925 15.6824 11.07 15.6599 11.07C16.2899 10.755 16.9649 10.575 17.7074 10.53V12.825C17.7074 12.9375 17.8424 13.05 17.9999 13.05C18.1574 13.05 18.2924 12.9375 18.2924 12.8025V10.485V10.5075C19.0574 10.5525 19.7549 10.755 20.4074 11.0925C20.4299 11.0925 20.4524 11.0925 20.4524 11.115L20.4749 11.1375C21.1724 11.52 21.7799 12.0375 22.2299 12.6675C22.2074 12.6675 22.1849 12.6675 22.1849 12.69L21.5099 13.0725C21.4649 13.095 21.4424 13.1175 21.4424 13.1625C21.4424 13.185 21.4424 13.2075 21.4649 13.23C21.4874 13.275 21.5774 13.2975 21.6224 13.275L22.2974 12.8925C22.3199 12.87 22.3424 12.8475 22.3424 12.825C22.3649 12.8475 22.3874 12.8925 22.4099 12.915L22.4324 12.9375C22.7924 13.5225 23.0399 14.175 23.1749 14.8725C23.1524 14.85 23.1299 14.85 23.1074 14.85H22.3424C22.2749 14.85 22.2299 14.895 22.2299 14.9625C22.2299 15.03 22.2749 15.075 22.3424 15.075H23.1299C23.1749 15.075 23.1974 15.0525 23.2199 15.03C23.2424 15.255 23.2649 15.48 23.2649 15.705H19.7549V15.7275Z" fill="white"/>
</svg>
